<svg xmlns="http://www.w3.org/2000/svg" viewBox="0 0 6705 1957"><path fill="#fff" fill-rule="evenodd" d="M77.0,1955.7C70.5,1952.4 71.8,1945.1 81.1,1933.6C88.2,1924.9 91.9,1918.3 92.0,1914.5C92.1,1909.9 96.5,1903.5 110.3,1888.0C124.9,1871.8 126.1,1870.0 129.0,1859.2C129.9,1855.8 132.3,1852.6 139.9,1844.6C151.2,1832.9 151.2,1832.8 154.0,1822.5C156.9,1811.8 157.1,1811.4 172.0,1794.5C186.3,1778.2 187.0,1777.3 190.4,1767.0C193.2,1758.9 193.2,1758.9 212.3,1734.7C232.7,1708.8 233.7,1707.2 235.6,1699.9C237.9,1690.9 238.8,1689.4 250.1,1676.4C261.4,1663.2 262.9,1660.8 263.7,1654.0C264.8,1644.7 263.9,1642.9 251.5,1629.7C241.8,1619.4 239.6,1616.5 237.4,1610.8C234.1,1602.2 234.2,1602.3 201.5,1564.0C169.4,1526.3 168.8,1525.6 165.9,1516.4C163.2,1507.7 162.2,1506.1 147.7,1486.1C132.8,1465.6 132.6,1465.2 130.1,1455.3C127.5,1444.5 126.5,1442.9 116.5,1431.1C108.0,1421.2 104.1,1414.6 104.0,1410.3C104.0,1405.9 100.6,1398.2 91.3,1381.3C82.0,1364.3 80.9,1361.2 79.4,1348.8C79.1,1345.6 77.5,1342.0 74.4,1337.3C69.7,1330.1 68.0,1325.7 68.0,1320.0C67.9,1315.1 65.9,1310.0 61.8,1304.3C56.1,1296.6 55.5,1294.8 43.9,1256.2C32.9,1220.0 32.8,1219.3 32.1,1206.4C31.4,1194.1 31.2,1193.0 27.6,1185.8C24.0,1178.5 23.9,1177.9 22.0,1156.5C19.8,1132.2 19.8,1132.5 12.9,1111.4C8.6,1098.0 7.5,1092.9 4.0,1068.1C-0.1,1039.9 -0.1,1039.9 0.2,975.7L0.5,911.5L15.8,828.0L31.1,744.5L37.5,731.5C43.9,718.6 44.0,718.3 45.8,704.0C47.6,690.0 48.2,688.0 53.1,680.3C54.2,678.6 55.5,674.3 56.1,670.8C57.1,664.8 57.9,663.0 64.3,652.6C66.6,649.0 67.3,646.3 68.0,638.9C68.7,631.6 69.4,629.1 71.4,626.2C72.8,624.1 75.1,620.9 76.5,618.9C78.5,616.1 79.3,613.3 80.0,606.5C80.7,599.7 81.5,596.9 83.5,594.1C84.9,592.1 87.1,588.9 88.5,586.9C90.2,584.5 91.3,581.2 91.9,576.4C93.2,566.7 93.4,566.2 110.1,540.3C124.8,517.4 127.0,513.3 128.4,505.8C128.8,503.4 130.8,500.0 133.9,496.5C137.1,492.9 139.2,489.4 139.9,486.4C140.7,483.2 142.7,480.1 146.8,475.7C151.1,471.1 153.5,467.4 155.9,461.5C165.9,436.8 158.8,446.8 216.0,375.9C262.5,318.2 263.4,317.2 294.0,288.9C301.4,282.0 309.1,274.0 311.0,271.2C312.9,268.3 316.8,264.5 319.6,262.6C322.3,260.7 327.9,255.4 331.8,250.7C342.0,238.7 345.4,235.9 356.9,230.0C365.6,225.5 368.0,223.7 373.3,217.6C389.3,199.2 389.2,199.3 462.5,152.5L531.5,108.5L586.7,84.8C642.9,60.7 642.9,60.7 664.2,56.9C668.7,56.2 672.9,54.6 676.7,52.2C691.4,43.2 689.8,43.7 764.6,25.5L836.4,8.0L874.3,4.0C912.3,0.0 912.3,0.0 985.6,0.0L1058.9,-0.0L1072.7,3.7C1086.3,7.3 1086.8,7.4 1111.5,8.0L1136.5,8.7L1206.1,25.8C1281.9,44.4 1280.1,43.8 1289.4,50.5C1297.2,56.0 1298.3,56.4 1330.5,65.0C1356.5,72.0 1356.5,72.0 1384.4,85.7C1417.6,102.1 1419.0,103.1 1419.0,110.6C1419.0,117.7 1417.1,122.0 1411.1,128.5C1407.9,132.1 1405.9,135.4 1405.1,138.4C1404.4,141.3 1402.3,144.8 1399.1,148.5C1395.9,152.2 1393.8,155.6 1393.1,158.7C1391.3,165.6 1389.5,168.6 1381.0,178.5C1370.3,191.1 1368.7,193.8 1363.6,208.7C1358.1,225.0 1357.3,226.5 1351.2,232.7C1347.7,236.2 1346.0,239.0 1345.2,242.3C1344.4,245.3 1342.3,248.8 1339.1,252.5C1336.1,255.9 1333.8,259.8 1333.0,262.6C1332.2,265.2 1329.9,269.3 1327.7,271.9C1325.4,274.5 1320.7,282.7 1316.9,290.7C1308.7,308.0 1308.1,308.5 1295.9,308.5C1288.3,308.5 1286.8,308.2 1284.3,306.3C1277.5,300.8 1272.5,298.9 1250.5,293.0C1222.9,285.7 1221.8,285.3 1212.4,279.0C1208.4,276.2 1203.8,273.5 1202.3,272.9C1199.6,271.9 1127.8,255.1 1108.5,250.9C1101.5,249.4 1083.1,248.1 1024.1,245.0L948.8,241.0L902.1,246.5C851.1,252.6 850.4,252.8 841.9,257.2C836.6,260.0 834.7,260.4 824.1,261.0C812.6,261.7 812.0,261.8 801.4,266.8C789.0,272.6 786.2,273.4 773.0,275.0C761.5,276.5 759.9,277.1 753.4,282.1C748.5,285.8 746.5,286.5 721.1,293.0C694.7,299.7 689.5,301.6 685.4,306.1C682.7,309.1 677.9,311.4 662.5,317.0C645.4,323.3 643.6,324.2 637.0,330.5C632.7,334.6 627.0,338.0 611.3,345.9C593.3,354.9 590.6,356.6 585.8,361.8C578.9,369.4 577.0,370.6 561.5,377.5C544.0,385.3 545.1,384.4 506.5,420.9C479.4,446.6 471.2,453.8 465.9,456.6C458.8,460.4 457.9,461.3 450.1,474.0C447.2,478.7 442.1,485.3 438.7,488.7C422.9,504.6 419.1,508.8 416.6,513.2C414.7,516.7 411.9,519.4 406.6,522.9C396.4,529.8 395.5,531.1 381.0,559.9C368.3,585.2 367.9,585.7 353.5,603.9C337.3,624.3 336.8,625.2 326.4,649.9C319.6,666.1 317.2,670.5 312.0,677.0C310.6,678.8 309.7,682.0 309.0,688.0C308.2,694.7 307.4,697.4 304.9,701.5C303.1,704.2 300.9,707.9 299.9,709.5C298.9,711.2 297.6,715.7 297.1,719.5C296.4,724.5 295.3,727.5 293.1,730.6C289.1,736.1 288.3,738.2 286.6,749.2C285.3,757.0 284.0,760.6 278.6,771.5C272.1,784.5 272.1,784.5 260.8,844.0L249.5,903.5L249.5,980.0L249.5,1056.5L262.8,1122.5C270.2,1158.8 276.9,1190.5 277.7,1193.0C278.6,1195.5 285.5,1211.7 293.2,1229.0C306.4,1258.7 308.2,1263.8 309.6,1275.2C310.0,1278.7 311.3,1281.5 315.0,1286.5C318.4,1291.2 320.2,1294.7 321.0,1298.6C321.8,1302.1 323.3,1305.5 325.6,1308.3C332.2,1316.4 334.9,1321.2 339.9,1333.8C346.3,1349.7 347.8,1352.1 353.7,1356.4C359.4,1360.5 357.5,1357.6 377.3,1393.0C397.0,1428.4 398.4,1430.0 410.8,1430.0C416.8,1430.0 418.6,1427.8 429.0,1408.4C436.1,1395.1 438.6,1391.4 444.1,1386.0C451.7,1378.6 452.0,1378.0 454.5,1368.6C456.4,1361.2 458.4,1358.7 470.5,1348.4C475.8,1343.9 477.6,1341.3 485.4,1326.9C490.3,1317.9 496.4,1306.7 498.9,1302.0C502.4,1295.6 506.4,1290.5 515.6,1280.9C527.8,1268.2 527.8,1268.2 533.5,1253.6C540.3,1236.2 540.4,1236.0 560.0,1212.9C583.0,1185.8 583.0,1185.8 597.1,1157.8C610.1,1132.1 610.2,1131.8 615.5,1128.5C622.6,1123.9 622.7,1123.8 639.2,1094.3C653.6,1068.4 654.8,1066.8 667.6,1054.9C672.1,1050.8 673.1,1048.9 677.8,1036.9C684.4,1019.9 684.1,1020.3 712.0,985.0C744.3,944.2 743.0,946.1 749.6,929.3C754.7,916.4 755.9,914.1 759.8,910.6C768.5,902.7 770.0,900.7 777.1,887.7C790.1,863.8 793.2,859.1 806.6,844.1C823.4,825.1 823.6,824.9 837.5,797.0C851.6,768.8 851.4,769.1 869.7,748.7C889.3,727.0 887.1,730.1 925.9,665.5C967.9,595.4 975.7,585.0 986.3,585.0C991.7,585.0 994.5,588.2 1001.7,602.3C1007.8,614.4 1009.2,616.3 1019.6,627.1C1028.5,636.4 1031.1,639.7 1032.1,643.2C1032.7,645.6 1033.7,649.0 1034.3,650.9C1034.9,653.1 1039.0,658.2 1045.7,665.1C1056.6,676.5 1057.5,678.0 1064.4,696.1C1069.2,708.7 1069.6,709.4 1099.4,747.0C1128.7,784.0 1128.7,784.0 1134.7,799.8C1140.7,815.7 1141.7,817.1 1158.9,836.5C1173.9,853.3 1175.1,855.0 1178.0,865.9C1178.9,869.4 1181.3,872.5 1188.9,880.4C1201.1,893.1 1201.5,893.6 1209.0,910.5C1217.1,928.7 1217.5,929.3 1249.3,970.9C1279.3,1010.3 1280.4,1011.9 1283.1,1022.5C1285.7,1033.0 1286.1,1033.7 1302.9,1052.4C1317.9,1069.3 1319.1,1071.1 1322.0,1081.8C1322.9,1085.2 1325.4,1088.6 1333.9,1097.4C1344.7,1108.6 1344.7,1108.6 1356.8,1132.6C1369.0,1156.5 1369.0,1156.5 1395.0,1190.0C1426.0,1229.8 1424.8,1228.0 1434.6,1249.5C1443.8,1269.9 1445.8,1273.0 1454.8,1280.3C1462.7,1286.7 1464.8,1289.7 1467.9,1299.1C1469.7,1304.6 1472.5,1308.8 1485.2,1325.1C1512.7,1360.2 1513.1,1360.8 1520.5,1377.3C1529.1,1396.6 1529.2,1396.8 1557.0,1432.5C1584.6,1467.9 1584.7,1468.2 1590.6,1483.5C1596.7,1499.8 1597.7,1501.3 1615.1,1520.6C1633.8,1541.5 1632.2,1539.1 1653.0,1576.5C1673.3,1613.1 1672.1,1611.2 1682.5,1622.0C1691.2,1631.0 1692.7,1633.3 1695.4,1641.7C1696.9,1646.1 1698.5,1648.2 1705.4,1654.5C1713.4,1661.7 1714.1,1662.7 1724.0,1681.2C1729.7,1691.8 1736.6,1704.8 1739.4,1710.0C1743.2,1717.1 1746.8,1721.9 1753.7,1729.2C1760.9,1736.7 1763.7,1740.5 1766.3,1746.2C1768.9,1751.8 1770.6,1754.2 1773.8,1756.4C1778.8,1759.8 1780.1,1761.8 1797.0,1792.5C1815.8,1826.4 1816.4,1827.4 1826.6,1838.1C1833.2,1845.0 1836.2,1849.0 1837.5,1852.6C1841.8,1864.4 1844.1,1867.9 1857.0,1882.5C1870.7,1898.0 1872.5,1900.7 1875.5,1910.0C1877.5,1916.1 1880.1,1920.3 1888.3,1930.2C1897.2,1941.0 1899.2,1949.8 1893.9,1954.6C1891.9,1956.4 1887.5,1956.5 1757.3,1956.8C1665.6,1956.9 1621.6,1956.7 1618.9,1956.0C1613.9,1954.6 1603.3,1944.8 1599.8,1938.3C1598.3,1935.7 1595.3,1928.8 1593.0,1923.1C1587.2,1908.3 1585.6,1905.6 1580.5,1901.4C1577.0,1898.4 1575.4,1896.0 1573.4,1890.6C1571.0,1884.5 1569.2,1882.1 1558.6,1871.0C1546.5,1858.3 1546.5,1858.3 1514.0,1804.5C1481.5,1750.7 1481.5,1750.7 1468.4,1737.0C1455.3,1723.3 1455.3,1723.3 1441.5,1696.0C1427.7,1668.7 1427.7,1668.7 1415.1,1655.5C1402.5,1642.3 1402.5,1642.3 1362.0,1576.5C1321.5,1510.7 1321.5,1510.7 1309.4,1498.0C1295.8,1483.9 1296.1,1484.3 1289.0,1466.1C1283.8,1452.8 1283.8,1452.8 1272.3,1440.9C1261.3,1429.5 1260.6,1428.5 1254.6,1415.8C1249.1,1404.1 1247.5,1401.8 1242.2,1396.9C1236.7,1391.9 1235.3,1389.6 1229.2,1376.9C1222.9,1363.6 1221.2,1361.1 1208.0,1345.0C1190.8,1323.9 1189.5,1322.0 1188.1,1315.2C1186.5,1307.6 1184.9,1304.9 1174.1,1292.1C1142.2,1254.3 1144.4,1257.6 1136.0,1236.3C1128.9,1218.7 1127.3,1216.2 1116.6,1207.0C1107.9,1199.6 1104.0,1194.5 1104.0,1190.6C1104.0,1186.6 1100.4,1181.3 1091.6,1172.1C1084.3,1164.5 1081.9,1161.1 1080.9,1157.8C1080.3,1155.4 1079.3,1152.0 1078.7,1150.1C1078.1,1147.9 1074.0,1142.8 1067.5,1136.1C1056.1,1124.2 1055.8,1123.8 1049.5,1107.3C1043.7,1092.5 1043.3,1091.9 1025.7,1072.3C1009.0,1053.6 1007.2,1051.2 1000.1,1037.2C994.0,1025.4 991.5,1023.0 985.5,1023.0C979.3,1023.0 975.0,1026.3 972.6,1033.0C971.0,1037.3 968.3,1040.8 959.1,1050.6C947.5,1062.7 947.5,1062.7 907.0,1128.5C866.5,1194.3 866.5,1194.3 854.3,1207.1C841.1,1221.0 840.4,1222.0 834.0,1238.7C830.2,1248.8 829.2,1250.5 823.1,1256.7C818.8,1261.1 815.9,1265.1 814.9,1268.0C813.8,1271.2 811.9,1273.7 808.3,1276.5C801.7,1281.8 800.1,1284.2 758.4,1351.9C722.5,1410.3 722.5,1410.3 709.4,1424.0C696.2,1437.7 696.2,1437.7 683.0,1464.1C667.4,1495.2 669.8,1491.5 640.2,1529.5C613.6,1563.7 613.0,1564.6 605.5,1583.3C599.3,1598.9 598.8,1602.5 602.6,1606.3C605.3,1609.0 673.5,1648.0 684.6,1653.2C688.5,1655.0 694.6,1656.7 700.7,1657.7C709.9,1659.1 717.1,1661.7 718.5,1664.0C719.8,1666.0 726.6,1668.8 734.4,1670.3C740.1,1671.5 743.9,1673.0 748.4,1675.9C756.3,1681.0 753.2,1680.2 839.0,1699.2L912.5,1715.5L982.1,1715.8C1051.8,1716.1 1051.8,1716.1 1079.8,1712.1C1097.7,1709.5 1118.7,1705.7 1137.7,1701.5C1174.5,1693.4 1177.1,1692.7 1184.3,1688.2C1189.3,1685.1 1191.2,1684.6 1199.1,1683.9C1206.9,1683.3 1208.9,1682.7 1213.3,1679.9C1224.0,1673.2 1226.7,1672.0 1235.9,1670.5C1247.2,1668.5 1248.9,1667.9 1254.7,1663.7C1258.7,1660.9 1260.1,1660.5 1266.9,1660.2C1277.7,1659.8 1280.2,1661.5 1283.1,1671.2C1285.0,1677.5 1286.1,1679.3 1291.1,1684.2C1296.0,1689.0 1298.1,1692.3 1303.9,1704.2C1310.6,1718.2 1311.1,1718.9 1325.9,1735.3C1344.7,1756.3 1344.3,1755.6 1358.8,1784.5C1371.9,1810.8 1373.1,1812.5 1389.8,1831.4C1401.3,1844.3 1404.9,1850.1 1405.0,1855.3C1405.0,1859.3 1402.6,1864.3 1399.9,1866.2C1396.9,1868.1 1265.5,1919.3 1258.0,1921.4C1255.0,1922.2 1228.2,1928.6 1198.5,1935.6C1144.5,1948.3 1144.5,1948.3 1123.5,1949.0C1103.0,1949.7 1102.3,1949.8 1093.0,1953.1L1083.5,1956.4L992.1,1956.7L900.8,1957.1L864.5,1953.0C828.3,1949.0 828.3,1949.0 756.7,1931.5C685.7,1914.3 680.7,1912.8 672.0,1906.5C664.6,1901.2 662.7,1900.5 622.8,1888.5L584.5,1876.9L549.0,1858.3C510.9,1838.3 507.9,1836.6 495.1,1826.0C479.9,1813.4 460.5,1807.7 453.7,1813.7C450.4,1816.6 388.8,1899.1 385.8,1904.6C384.3,1907.4 381.2,1914.6 378.9,1920.6C376.7,1926.6 373.8,1933.3 372.5,1935.5C368.9,1941.8 354.9,1954.7 350.3,1955.9C344.4,1957.6 80.3,1957.4 77.0,1955.7ZM2578.5,1695.0C2560.3,1694.0 2543.5,1692.7 2541.1,1692.0C2535.7,1690.6 2498.4,1672.0 2492.1,1667.7C2486.7,1664.0 2458.9,1638.9 2454.1,1633.5C2452.2,1631.3 2449.8,1627.6 2448.7,1625.1C2442.4,1610.5 2436.6,1599.1 2434.1,1596.5C2429.9,1592.1 2428.8,1589.4 2427.9,1581.5C2427.3,1576.2 2426.2,1572.5 2423.5,1567.4C2419.9,1560.6 2419.9,1560.6 2420.2,1531.1C2420.5,1501.5 2420.5,1501.5 2423.9,1494.7C2426.7,1489.0 2427.4,1486.3 2428.0,1478.1C2428.9,1467.0 2428.6,1467.6 2441.8,1445.5C2451.2,1429.6 2451.4,1429.3 2470.4,1410.5C2488.4,1392.5 2490.1,1391.1 2501.0,1385.0C2522.2,1373.2 2524.6,1372.2 2547.5,1366.2C2569.5,1360.5 2569.5,1360.5 2592.5,1360.5C2615.5,1360.5 2615.5,1360.5 2634.5,1365.9C2644.9,1368.8 2655.5,1372.3 2658.0,1373.5C2665.8,1377.6 2700.3,1401.4 2702.3,1404.1C2707.0,1410.6 2703.4,1421.1 2693.9,1429.2C2691.1,1431.5 2683.9,1438.4 2677.9,1444.3C2666.4,1455.6 2664.3,1457.0 2658.0,1457.0C2652.2,1457.0 2649.1,1455.4 2643.0,1449.5C2639.2,1445.7 2634.9,1442.9 2628.9,1440.1C2614.5,1433.5 2611.9,1433.0 2590.4,1433.0C2561.5,1433.0 2555.0,1435.5 2532.8,1454.9C2519.2,1466.8 2517.3,1469.4 2514.6,1480.0C2513.7,1483.6 2511.6,1488.3 2510.0,1490.5C2500.6,1503.2 2501.5,1499.1 2501.5,1530.0L2501.5,1557.7L2506.9,1568.6C2512.0,1579.0 2512.9,1580.2 2526.4,1593.6C2545.9,1613.0 2557.9,1619.2 2581.4,1622.1C2607.2,1625.2 2632.5,1618.6 2643.2,1605.9C2648.4,1599.7 2651.5,1598.0 2657.3,1598.0C2663.9,1598.0 2676.5,1607.4 2684.3,1618.0C2686.5,1621.0 2691.9,1627.0 2696.1,1631.3C2704.7,1639.8 2706.0,1642.7 2704.0,1649.8C2701.8,1658.3 2698.6,1660.2 2643.0,1686.3C2618.3,1697.9 2622.0,1697.4 2578.5,1695.0ZM3138.5,1695.0C3120.3,1694.0 3103.5,1692.7 3101.0,1692.0C3098.5,1691.3 3086.6,1685.8 3074.6,1679.8C3052.8,1668.8 3052.6,1668.7 3042.1,1658.6C3036.2,1653.1 3029.3,1647.0 3026.7,1645.3C3023.3,1642.9 3021.3,1640.5 3019.4,1636.6C3018.0,1633.6 3015.1,1629.7 3013.0,1627.8C3008.0,1623.3 3006.3,1619.7 3000.0,1600.5C2994.3,1583.3 2992.1,1578.2 2989.4,1575.9C2984.4,1571.8 2984.0,1568.9 2984.0,1531.0C2984.0,1508.6 2984.4,1494.0 2985.1,1491.5C2986.6,1486.0 3005.8,1441.4 3008.6,1436.9C3011.2,1432.7 3037.0,1403.9 3042.3,1399.3C3044.3,1397.6 3048.5,1395.3 3051.7,1394.3C3056.1,1392.9 3059.1,1391.0 3064.6,1385.8C3072.6,1378.4 3069.9,1379.5 3103.0,1370.2C3125.6,1363.8 3123.7,1364.2 3141.3,1362.5C3166.4,1360.1 3169.7,1360.3 3190.6,1366.0C3200.7,1368.8 3210.9,1371.9 3213.3,1372.9C3218.2,1375.0 3241.9,1388.2 3246.9,1391.6C3251.5,1394.7 3293.6,1440.4 3296.6,1445.5C3297.9,1447.7 3302.9,1459.7 3307.7,1472.0L3316.5,1494.5L3316.5,1530.5L3316.5,1566.5L3307.7,1589.0C3302.9,1601.3 3297.8,1613.3 3296.5,1615.5C3293.1,1621.3 3242.4,1671.4 3237.4,1673.8C3224.4,1680.3 3182.5,1696.1 3177.2,1696.4C3174.1,1696.7 3156.7,1696.0 3138.5,1695.0ZM4289.5,1695.9C4278.6,1693.3 4243.2,1681.6 4240.5,1679.7C4238.9,1678.6 4234.3,1674.6 4230.4,1670.8C4225.5,1666.1 4221.1,1663.1 4216.4,1661.0C4209.2,1657.7 4190.3,1640.5 4185.8,1633.0C4184.6,1631.1 4181.6,1627.2 4179.0,1624.5C4174.7,1619.9 4173.8,1618.0 4168.5,1602.0C4162.3,1583.3 4160.2,1578.2 4157.4,1575.9C4152.4,1571.8 4152.0,1568.9 4152.0,1531.0C4152.0,1508.4 4152.4,1494.0 4153.1,1491.5C4154.5,1486.3 4170.2,1449.4 4174.6,1440.9C4179.4,1431.7 4214.5,1396.7 4223.5,1392.2C4226.8,1390.5 4231.1,1387.6 4232.9,1385.6C4234.9,1383.5 4238.8,1381.1 4241.9,1379.9C4245.0,1378.8 4248.9,1376.8 4250.6,1375.5C4254.5,1372.5 4259.0,1371.3 4273.2,1369.6C4283.5,1368.3 4285.7,1367.6 4292.7,1364.0C4300.5,1359.8 4300.5,1359.8 4322.0,1360.2C4343.5,1360.6 4343.5,1360.6 4362.5,1365.9C4383.5,1371.7 4386.1,1372.9 4407.0,1385.5C4433.2,1401.3 4437.9,1407.0 4433.5,1417.6C4431.9,1421.5 4403.6,1450.8 4398.5,1454.0C4390.4,1459.0 4383.6,1457.7 4375.5,1449.9C4371.2,1445.8 4366.9,1442.9 4360.9,1440.1C4346.5,1433.5 4343.9,1433.0 4322.5,1433.0C4301.5,1433.0 4298.5,1433.5 4285.7,1439.4C4278.8,1442.5 4276.9,1444.2 4270.1,1453.0C4268.8,1454.7 4264.5,1458.3 4260.5,1461.0C4250.2,1468.0 4247.9,1470.6 4241.5,1483.0C4234.1,1497.6 4233.3,1500.2 4231.5,1514.4C4229.3,1532.0 4229.6,1539.6 4232.9,1554.2C4236.8,1570.8 4238.1,1573.1 4248.9,1582.3C4255.1,1587.5 4258.8,1591.6 4260.4,1594.8C4263.6,1601.1 4265.6,1602.7 4279.4,1610.4C4293.9,1618.5 4299.4,1620.4 4313.1,1622.0C4327.4,1623.7 4331.8,1623.2 4350.5,1617.4C4363.4,1613.5 4367.7,1611.7 4372.5,1608.3C4387.0,1597.9 4387.2,1597.8 4392.0,1598.3C4396.0,1598.8 4397.1,1599.5 4403.3,1606.2C4407.0,1610.2 4411.6,1615.8 4413.5,1618.5C4415.4,1621.3 4420.4,1626.4 4424.5,1629.9C4438.2,1641.4 4438.7,1649.0 4426.5,1658.0C4423.5,1660.2 4420.3,1663.2 4419.4,1664.6C4416.8,1668.4 4411.6,1671.0 4379.9,1684.2L4350.5,1696.4L4322.0,1696.7C4306.3,1696.8 4291.7,1696.4 4289.5,1695.9ZM6010.6,1696.0C6006.9,1694.8 6006.1,1694.1 5989.3,1675.7C5977.6,1662.9 5973.7,1659.4 5969.0,1657.0C5963.8,1654.4 5962.6,1653.2 5958.9,1646.8C5953.7,1637.8 5901.2,1584.2 5891.8,1578.3C5887.8,1575.8 5885.2,1573.2 5882.7,1569.2C5878.0,1561.7 5836.5,1520.4 5832.6,1519.4C5830.5,1518.9 5829.3,1519.2 5827.7,1520.9C5825.5,1523.1 5825.5,1523.1 5825.0,1603.3C5824.5,1690.4 5824.6,1688.0 5819.1,1691.0C5816.5,1692.3 5804.1,1692.2 5779.3,1690.6C5757.6,1689.2 5754.9,1688.5 5753.0,1683.4C5751.6,1679.7 5751.7,1372.0 5753.1,1368.3C5754.8,1363.8 5757.9,1361.1 5762.4,1360.5C5767.7,1359.7 5771.1,1361.0 5777.4,1366.5C5780.2,1369.0 5785.6,1373.6 5789.5,1376.8C5794.0,1380.6 5797.9,1385.0 5800.5,1389.3C5803.9,1394.8 5815.6,1406.4 5873.4,1461.0C5911.2,1496.8 5943.5,1526.7 5945.1,1527.5C5948.8,1529.5 5950.3,1529.4 5953.1,1527.1C5955.5,1525.2 5955.5,1525.2 5956.0,1451.1C5956.5,1377.5 5956.5,1377.0 5958.6,1375.0C5961.7,1371.9 5965.8,1371.3 5994.8,1369.9C6023.0,1368.5 6025.7,1368.8 6027.7,1373.1C6029.2,1376.2 6025.7,1687.1 6024.1,1691.2C6022.3,1695.9 6016.7,1697.9 6010.6,1696.0ZM6496.5,1695.0C6479.4,1694.1 6463.5,1692.7 6461.0,1692.0C6456.7,1690.9 6400.6,1661.9 6394.7,1657.8C6393.2,1656.7 6388.9,1651.5 6385.1,1646.1C6379.5,1638.2 6377.1,1635.7 6372.3,1632.9C6366.5,1629.5 6366.5,1629.5 6354.8,1606.5C6339.6,1576.7 6340.3,1579.3 6337.9,1543.3C6336.0,1513.1 6336.0,1513.1 6339.4,1495.7C6342.6,1479.3 6344.6,1473.0 6347.0,1471.5C6348.6,1470.5 6351.1,1465.2 6352.6,1459.2C6355.0,1450.2 6376.4,1419.0 6380.2,1419.0C6380.7,1419.0 6385.6,1414.4 6391.3,1408.9C6396.9,1403.3 6403.9,1397.0 6406.7,1394.9C6409.6,1392.7 6412.7,1389.9 6413.5,1388.6C6415.9,1385.0 6421.1,1381.9 6435.4,1375.6C6452.0,1368.2 6454.4,1367.7 6485.7,1364.1C6518.8,1360.2 6521.5,1360.2 6540.8,1364.5C6556.1,1367.9 6557.1,1368.3 6579.7,1379.4C6609.4,1394.2 6619.0,1402.3 6620.6,1414.2C6621.8,1422.8 6619.5,1425.9 6599.4,1442.3C6579.0,1459.1 6576.7,1460.2 6568.6,1457.7C6563.1,1455.9 6560.7,1454.4 6552.0,1447.3C6541.1,1438.3 6529.6,1436.7 6496.7,1439.5C6476.0,1441.2 6476.4,1441.1 6455.3,1457.9C6436.9,1472.7 6436.7,1473.0 6427.1,1490.4C6416.9,1508.9 6416.8,1509.3 6417.2,1531.3L6417.5,1549.7L6426.1,1567.1C6436.0,1587.0 6436.8,1588.2 6450.7,1600.1C6463.3,1611.0 6466.5,1612.6 6486.1,1618.4C6503.7,1623.6 6508.2,1623.9 6526.3,1621.5C6543.3,1619.3 6550.5,1613.6 6550.2,1602.9C6550.0,1592.0 6546.1,1588.8 6531.0,1587.1C6511.7,1584.8 6512.0,1585.3 6512.0,1556.3C6512.0,1533.6 6512.5,1531.5 6517.4,1529.1C6521.1,1527.4 6609.3,1523.7 6614.4,1525.1C6618.4,1526.2 6622.7,1530.6 6624.0,1534.9C6625.2,1539.3 6621.5,1657.5 6620.0,1661.5C6618.4,1665.7 6616.5,1667.6 6608.5,1673.0C6597.4,1680.5 6595.0,1681.4 6566.8,1688.9C6535.0,1697.4 6535.9,1697.3 6496.5,1695.0ZM3586.1,1691.2C3581.9,1689.0 3578.5,1682.9 3578.5,1677.9C3578.5,1674.3 3579.0,1673.4 3587.9,1661.0C3590.4,1657.6 3592.9,1652.2 3594.5,1647.0C3599.0,1632.7 3599.4,1631.9 3603.1,1627.6C3608.3,1621.6 3609.5,1619.0 3614.6,1600.3C3619.9,1581.1 3620.5,1579.6 3631.0,1564.0C3641.3,1548.6 3642.9,1545.3 3644.0,1536.5C3645.2,1527.3 3645.9,1525.8 3657.0,1510.9C3665.7,1499.3 3668.0,1494.6 3668.0,1488.5C3668.0,1482.4 3670.4,1477.2 3679.6,1463.3C3691.9,1444.5 3692.0,1444.2 3697.6,1424.0C3702.9,1404.3 3704.2,1401.2 3710.1,1394.4C3714.8,1389.0 3716.5,1385.4 3718.1,1377.9C3719.5,1371.5 3724.6,1365.5 3730.1,1363.9C3736.7,1361.9 3739.0,1363.6 3749.7,1378.8C3763.1,1397.6 3764.0,1399.4 3765.0,1409.4C3766.3,1422.5 3776.3,1444.9 3785.0,1454.5C3789.2,1459.1 3790.3,1461.3 3793.0,1470.2C3801.1,1497.0 3800.6,1495.8 3814.0,1516.1C3820.8,1526.3 3824.5,1532.9 3825.6,1536.8C3828.6,1547.7 3829.1,1548.9 3833.0,1553.8C3837.8,1559.8 3838.0,1560.3 3843.7,1581.0C3849.0,1600.3 3849.6,1601.6 3869.3,1635.0C3888.3,1667.2 3888.4,1667.5 3887.6,1675.9C3887.2,1679.5 3886.1,1684.3 3885.0,1686.7C3882.3,1692.8 3880.1,1693.2 3851.3,1692.8C3828.8,1692.5 3827.0,1692.4 3824.3,1690.4C3822.8,1689.3 3815.6,1679.7 3808.4,1669.0C3801.2,1658.4 3794.0,1648.8 3792.4,1647.6C3787.9,1644.3 3681.1,1644.3 3676.6,1647.6C3675.0,1648.8 3667.8,1658.4 3660.6,1669.0C3653.4,1679.7 3646.2,1689.3 3644.7,1690.4C3640.5,1693.5 3591.5,1694.1 3586.1,1691.2ZM4953.0,1691.7C4948.0,1689.2 4947.9,1688.4 4945.9,1628.1C4944.0,1568.7 4943.8,1566.5 4939.2,1563.3C4935.1,1560.6 4823.9,1560.5 4819.7,1563.3C4813.3,1567.5 4813.5,1564.8 4813.0,1627.1C4812.4,1690.7 4812.9,1686.9 4805.1,1688.9C4799.2,1690.4 4752.4,1692.5 4749.2,1691.4C4743.8,1689.5 4744.1,1696.3 4742.0,1532.4C4739.9,1368.5 4739.7,1376.0 4745.0,1373.3C4748.6,1371.5 4804.4,1371.5 4808.0,1373.3C4813.0,1375.8 4813.1,1376.9 4815.0,1431.9C4816.8,1487.1 4817.0,1488.2 4822.0,1490.7C4825.6,1492.5 4931.4,1492.5 4935.0,1490.7C4940.0,1488.2 4940.1,1487.1 4942.0,1432.0C4943.3,1393.1 4944.1,1379.6 4945.1,1377.4C4947.6,1372.2 4949.0,1372.0 4980.5,1372.0C5011.6,1372.0 5013.4,1372.3 5015.7,1377.1C5017.5,1380.8 5013.6,1683.9 5011.8,1687.8C5009.4,1692.6 5007.4,1693.0 4980.5,1693.0C4962.3,1693.0 4954.8,1692.6 4953.0,1691.7ZM5358.6,1692.0C5354.5,1690.7 5350.2,1686.2 5349.0,1682.1C5347.2,1675.7 5347.7,1379.7 5349.5,1375.4C5352.4,1368.5 5355.9,1367.8 5387.5,1368.2C5417.7,1368.5 5417.3,1368.5 5422.4,1375.4C5425.7,1379.8 5425.7,1681.2 5422.4,1685.6C5417.3,1692.5 5417.6,1692.5 5388.2,1692.7C5373.5,1692.8 5360.2,1692.5 5358.6,1692.0ZM3188.6,1615.1C3199.1,1609.9 3200.1,1609.1 3216.3,1593.1C3228.4,1581.2 3233.7,1575.2 3235.5,1571.5C3238.3,1565.7 3244.5,1521.8 3243.7,1514.1C3243.1,1508.9 3227.9,1477.4 3223.4,1472.1C3218.8,1466.6 3198.9,1450.0 3194.0,1447.5C3191.5,1446.3 3184.3,1443.3 3178.0,1441.0C3164.7,1436.1 3158.0,1436.0 3130.7,1440.0C3111.0,1442.9 3108.7,1444.0 3093.4,1457.3C3077.0,1471.7 3076.0,1473.0 3070.4,1487.5C3067.7,1494.4 3064.1,1501.6 3061.9,1504.5C3056.4,1511.8 3056.0,1513.6 3056.0,1530.4C3056.0,1548.2 3056.7,1551.5 3064.5,1567.5C3069.8,1578.4 3070.0,1578.7 3086.7,1595.1C3112.8,1620.9 3113.3,1621.1 3150.6,1620.7L3177.7,1620.5L3188.6,1615.1ZM3758.2,1578.9C3763.7,1575.9 3764.7,1563.4 3759.9,1557.4C3755.6,1552.0 3754.6,1549.9 3748.9,1534.2C3742.3,1516.2 3740.3,1513.1 3734.9,1513.0C3730.3,1513.0 3727.2,1516.4 3724.9,1524.3C3721.5,1535.6 3714.1,1551.6 3709.9,1556.8C3703.4,1564.6 3702.9,1571.3 3708.2,1575.3C3712.4,1578.4 3753.5,1581.4 3758.2,1578.9ZM1770.3,1547.4C1766.1,1545.3 1765.5,1544.4 1742.0,1502.5C1715.8,1455.9 1717.6,1458.6 1703.0,1443.4C1690.5,1430.3 1690.5,1430.3 1675.6,1403.6C1657.5,1371.1 1655.6,1368.1 1644.8,1355.5C1628.5,1336.4 1628.5,1334.3 1644.1,1310.4C1655.5,1292.9 1655.4,1293.2 1658.5,1278.0C1660.5,1267.8 1662.4,1262.8 1675.3,1234.0C1683.2,1216.1 1690.5,1199.4 1691.3,1196.8C1692.2,1194.3 1698.9,1164.3 1706.2,1130.3L1719.5,1068.5L1719.5,980.5L1719.5,892.5L1706.8,831.5C1691.7,759.5 1693.0,764.4 1688.1,758.9C1682.7,752.7 1683.2,754.0 1671.5,715.0C1665.7,695.5 1659.4,676.6 1657.6,673.0C1649.8,657.7 1585.3,547.0 1581.0,541.5C1578.3,538.2 1558.9,515.9 1537.8,492.0C1500.8,450.0 1499.3,448.4 1492.8,445.2C1487.1,442.5 1484.6,440.3 1476.5,431.0C1468.4,421.8 1465.9,419.6 1460.6,417.1C1455.3,414.6 1452.9,412.5 1445.4,403.8C1438.0,395.2 1434.7,392.3 1425.5,386.4C1410.0,376.3 1407.0,373.6 1407.0,369.4C1407.0,367.0 1411.9,356.3 1423.5,333.3C1439.9,300.5 1439.9,300.5 1450.6,288.0C1462.1,274.6 1464.0,271.3 1466.5,260.4C1468.4,251.9 1469.3,250.5 1492.4,216.9C1505.8,197.3 1510.7,189.3 1512.2,184.7C1517.3,168.6 1519.7,166.0 1529.0,166.0C1534.8,166.0 1534.5,165.8 1562.5,190.0C1575.5,201.3 1588.9,212.2 1592.3,214.3C1595.7,216.4 1599.8,219.4 1601.5,220.9C1603.1,222.5 1607.9,225.3 1612.0,227.2C1618.3,230.1 1622.3,233.2 1637.0,246.6C1646.6,255.4 1655.8,264.3 1657.5,266.3C1670.3,282.1 1681.3,293.1 1689.0,297.7C1694.2,300.9 1715.4,322.9 1717.8,327.6C1718.9,329.8 1722.4,333.8 1725.4,336.4C1730.2,340.4 1732.0,343.1 1737.7,354.3C1744.4,367.5 1744.4,367.5 1763.4,387.1L1782.5,406.6L1816.0,464.6C1842.0,509.7 1850.7,523.9 1855.2,528.6C1859.8,533.6 1861.2,536.1 1862.9,541.7C1864.3,546.3 1866.5,550.6 1869.5,554.4C1872.4,558.2 1874.6,562.5 1875.9,566.9C1877.0,570.5 1879.9,580.6 1882.4,589.3C1887.6,607.0 1888.4,608.8 1893.4,614.9C1895.4,617.3 1897.0,619.3 1897.0,619.4C1897.0,624.3 1901.7,639.5 1904.6,643.8C1907.9,648.8 1909.1,652.6 1912.0,667.2C1912.8,671.3 1914.3,674.3 1917.1,677.9C1922.1,684.1 1921.7,683.2 1934.4,729.5C1944.0,765.0 1945.7,772.4 1952.7,812.0L1960.5,855.5L1960.5,977.5L1960.5,1099.5L1955.3,1118.0C1948.8,1141.4 1949.3,1138.5 1947.0,1165.8C1945.3,1187.5 1944.9,1189.4 1942.4,1193.8C1940.9,1196.4 1938.9,1200.1 1937.9,1202.0C1936.9,1203.9 1933.8,1217.7 1931.0,1232.5C1925.7,1260.5 1924.5,1264.2 1917.5,1275.1C1914.4,1279.9 1913.8,1281.9 1913.0,1289.8C1912.1,1298.0 1910.4,1303.2 1895.6,1342.7C1886.6,1366.8 1878.3,1388.5 1877.2,1391.0C1875.3,1395.4 1791.8,1537.6 1787.7,1543.4C1784.0,1548.6 1776.4,1550.4 1770.3,1547.4ZM5458.0,1176.3C5451.2,1175.0 5412.8,1166.7 5407.9,1165.5C5402.6,1164.1 5300.6,1120.4 5289.3,1114.7C5285.8,1112.9 5282.1,1109.6 5277.9,1104.8C5273.3,1099.3 5269.8,1096.4 5264.1,1093.2C5258.3,1089.9 5253.0,1085.5 5242.0,1074.5C5233.1,1065.7 5225.0,1058.6 5221.1,1056.2C5215.8,1053.1 5214.1,1051.3 5211.7,1046.9C5208.1,1040.2 5206.6,1038.2 5185.5,1013.5C5165.3,989.9 5164.9,989.4 5161.9,981.0C5160.3,976.5 5157.9,972.8 5154.3,968.8C5151.4,965.7 5148.8,961.8 5148.4,960.3C5147.4,956.2 5145.5,952.8 5141.7,948.2C5139.5,945.6 5135.9,938.2 5131.6,927.4C5125.4,912.1 5124.8,909.7 5124.0,900.4C5123.3,891.3 5122.8,889.5 5119.5,883.6C5116.1,877.4 5115.7,876.0 5114.0,860.8C5112.0,842.8 5112.0,843.2 5107.6,834.0C5104.5,827.5 5104.5,827.5 5104.5,762.5L5104.5,697.5L5113.8,668.5C5122.6,641.0 5123.1,638.9 5123.9,627.5C5124.6,616.5 5125.1,614.6 5129.0,605.5C5135.7,589.6 5138.7,584.1 5143.5,578.8C5146.2,575.8 5148.4,572.1 5149.0,569.7C5152.7,555.6 5152.7,555.5 5174.0,530.5C5192.5,508.7 5194.4,506.2 5197.4,498.2C5198.9,494.3 5201.4,490.1 5203.1,488.4C5204.8,486.8 5207.7,483.2 5209.5,480.5C5211.3,477.8 5217.9,470.5 5224.1,464.4C5234.5,454.2 5236.4,452.8 5246.0,448.2C5256.1,443.4 5256.9,442.7 5264.5,433.8C5272.5,424.5 5272.5,424.5 5290.2,415.4C5304.6,408.1 5309.1,405.2 5314.7,399.9C5320.9,394.1 5323.5,392.6 5342.0,384.1C5353.3,379.0 5364.8,373.9 5367.5,373.0C5371.2,371.6 5441.8,356.5 5463.0,352.5C5464.4,352.2 5484.9,351.1 5508.7,350.0C5557.1,347.7 5548.3,347.1 5601.0,356.6C5620.5,360.1 5620.5,360.1 5666.0,378.2C5721.1,400.1 5719.7,399.4 5735.5,412.2C5780.8,448.8 5782.0,449.7 5787.7,451.8C5794.9,454.4 5794.0,453.5 5833.9,499.8C5868.8,540.3 5868.0,539.2 5871.0,550.6C5872.2,555.2 5874.3,560.2 5876.0,562.5C5883.3,572.4 5884.1,573.9 5885.0,579.6C5885.5,582.8 5886.9,586.6 5888.0,588.0C5893.7,595.1 5896.3,599.8 5902.4,613.7C5909.0,628.7 5909.2,629.5 5918.8,672.7L5928.5,716.5L5928.5,764.5L5928.5,812.5L5919.2,854.5C5909.4,898.4 5909.2,899.2 5901.5,908.7C5899.2,911.7 5897.9,914.4 5897.5,917.7C5896.5,926.0 5895.2,929.4 5890.9,934.5C5885.3,941.3 5883.8,944.5 5879.0,960.6C5873.7,977.9 5873.6,978.1 5865.3,986.0C5859.8,991.2 5856.4,996.0 5848.1,1010.0C5837.7,1027.5 5837.7,1027.5 5813.1,1052.3C5789.2,1076.4 5788.2,1077.2 5779.5,1081.5C5772.1,1085.1 5767.0,1088.8 5750.5,1103.0C5724.5,1125.2 5725.1,1124.8 5692.0,1139.3C5658.0,1154.1 5663.4,1152.3 5612.5,1165.7L5571.5,1176.5L5516.0,1176.6C5485.5,1176.7 5459.4,1176.6 5458.0,1176.3ZM2366.6,1164.0C2359.1,1161.7 2356.0,1155.4 2356.0,1142.7C2356.0,1134.3 2357.3,1130.1 2361.5,1124.5C2363.0,1122.6 2365.1,1117.6 2366.2,1113.3C2368.6,1103.9 2369.3,1102.5 2379.0,1088.0C2388.2,1074.2 2390.6,1069.7 2391.5,1064.5C2391.8,1062.3 2392.3,1059.0 2392.6,1057.3C2392.9,1055.3 2395.0,1051.8 2398.0,1048.4C2401.7,1044.2 2403.2,1041.5 2404.0,1037.7C2404.6,1034.8 2406.1,1030.9 2407.3,1028.8C2408.5,1026.8 2410.8,1023.1 2412.3,1020.6C2414.4,1017.2 2415.3,1014.2 2415.9,1008.3C2416.7,1000.2 2417.6,997.7 2421.7,992.4C2423.0,990.6 2424.9,986.3 2425.9,982.6C2427.1,978.4 2429.2,974.2 2431.8,970.7C2434.7,967.0 2436.7,962.9 2438.3,957.3C2439.6,952.9 2441.5,948.2 2442.6,946.8C2443.6,945.4 2446.4,942.0 2448.6,939.2C2451.7,935.4 2454.1,930.4 2458.5,918.3C2465.7,898.9 2467.2,895.6 2472.2,890.2C2476.9,885.1 2476.7,885.4 2484.0,860.5C2490.9,836.6 2491.1,836.3 2494.5,832.1C2496.0,830.4 2498.3,826.3 2499.6,823.2C2500.8,820.1 2503.8,815.2 2506.1,812.4C2510.4,807.2 2513.6,800.3 2550.0,719.5C2558.1,701.4 2569.1,675.3 2574.4,661.6C2583.6,637.7 2584.4,636.1 2594.5,620.8C2607.8,600.7 2607.8,600.7 2614.0,580.6C2619.2,563.5 2620.5,560.8 2626.8,553.6C2631.4,548.4 2633.1,544.3 2638.3,525.2C2642.8,509.1 2644.9,504.5 2651.5,496.3C2653.6,493.6 2655.3,490.1 2656.0,486.6C2656.8,482.7 2658.6,479.2 2662.0,474.5C2665.4,469.8 2667.2,466.3 2668.0,462.4C2668.7,458.9 2670.4,455.4 2672.5,452.7C2679.0,444.7 2681.3,439.9 2686.2,423.8C2691.2,407.3 2692.4,404.9 2699.3,397.0C2704.1,391.5 2705.6,388.6 2712.0,372.4C2719.8,352.9 2720.2,352.5 2734.2,350.4C2747.4,348.4 2750.8,348.6 2756.9,351.6C2763.6,355.0 2765.5,358.0 2773.0,376.4C2777.0,386.3 2780.2,392.7 2782.7,395.7C2788.9,403.0 2789.0,403.3 2791.1,415.0C2793.4,427.8 2794.7,430.9 2804.0,444.0C2812.8,456.4 2812.9,456.6 2818.9,476.4C2825.1,496.5 2825.2,496.7 2838.6,516.9C2849.1,532.8 2849.1,532.8 2867.1,579.5C2887.4,632.2 2887.3,632.1 2893.8,639.3C2898.1,644.0 2899.6,647.4 2910.9,676.2C2922.1,704.9 2923.7,708.3 2928.0,713.2C2934.3,720.4 2934.2,720.1 2947.0,756.5C2959.4,792.0 2959.2,791.6 2964.9,798.3C2967.6,801.5 2969.6,805.4 2971.0,809.9C2972.1,813.8 2974.6,818.8 2977.0,822.0C2979.4,825.2 2981.9,830.2 2983.1,834.3C2984.3,838.5 2986.4,842.5 2988.4,844.8C2995.9,853.3 3006.0,875.0 3008.9,888.8C3010.3,895.0 3011.5,898.0 3013.9,900.8C3019.9,907.9 3022.2,913.1 3026.6,929.1C3031.7,947.5 3031.8,947.7 3037.8,954.8C3041.7,959.4 3043.9,964.2 3054.5,991.3C3068.7,1027.8 3069.2,1028.8 3081.1,1046.8C3091.7,1062.8 3091.9,1063.1 3093.0,1073.4C3093.7,1079.3 3094.6,1082.3 3096.9,1085.9C3098.5,1088.4 3100.5,1093.4 3101.4,1097.0C3102.5,1101.3 3105.1,1106.9 3109.2,1113.5C3119.9,1130.7 3120.5,1132.3 3120.5,1142.1C3120.5,1152.1 3118.1,1156.9 3110.8,1161.7C3106.6,1164.5 3106.6,1164.5 3046.6,1164.5C2976.7,1164.5 2985.4,1166.2 2971.6,1150.0C2959.9,1136.3 2959.6,1135.6 2947.1,1099.7C2934.4,1063.2 2934.3,1063.1 2928.3,1056.9C2924.3,1052.8 2923.6,1051.2 2921.9,1043.9C2919.5,1033.6 2916.2,1027.8 2910.8,1024.2C2906.6,1021.5 2906.6,1021.5 2740.6,1021.2C2623.1,1021.0 2573.4,1021.2 2570.7,1022.0C2566.0,1023.4 2564.4,1025.8 2562.5,1034.8C2560.4,1044.8 2559.4,1047.0 2549.2,1062.1C2537.6,1079.6 2537.0,1080.7 2530.9,1100.6C2528.1,1109.9 2525.1,1118.8 2524.3,1120.5C2521.9,1125.1 2501.5,1154.2 2498.8,1156.7C2494.4,1160.8 2491.7,1161.1 2444.5,1162.5C2419.2,1163.3 2392.0,1164.1 2384.0,1164.4C2376.0,1164.6 2368.2,1164.5 2366.6,1164.0ZM3350.6,1164.0C3346.5,1162.7 3342.1,1158.2 3341.0,1154.0C3340.4,1151.8 3339.3,1028.7 3338.0,833.9C3335.7,468.1 3335.5,384.2 3337.1,378.6C3338.6,373.2 3349.2,362.6 3354.6,361.1C3357.3,360.3 3410.3,360.0 3535.1,360.0C3708.5,360.0 3712.0,360.0 3723.6,362.0C3756.1,367.6 3755.5,367.4 3795.3,385.4C3815.6,394.5 3834.0,403.3 3836.3,404.9C3841.1,408.3 3893.7,461.0 3896.7,465.5C3899.7,469.8 3930.8,539.4 3932.1,544.3C3932.7,547.1 3933.0,569.6 3932.8,609.5L3932.5,670.5L3922.2,695.9C3908.9,728.7 3909.3,727.9 3898.3,739.1C3891.2,746.3 3887.9,750.7 3884.7,756.8C3880.7,764.5 3879.2,766.1 3857.5,786.2C3829.4,812.2 3828.1,813.2 3815.0,820.7C3803.4,827.3 3798.4,829.3 3789.5,831.1C3778.4,833.2 3775.0,837.0 3774.7,847.4C3774.6,853.0 3775.9,855.8 3783.9,866.7C3786.2,869.8 3788.1,874.0 3788.9,877.3C3789.8,881.5 3791.3,884.1 3795.0,888.5C3798.2,892.1 3800.4,895.7 3801.1,898.5C3801.8,901.3 3804.0,904.9 3807.0,908.4C3810.5,912.4 3812.1,915.3 3813.0,919.2C3814.7,926.4 3815.4,927.7 3826.0,942.0C3836.5,956.2 3838.9,960.9 3853.0,995.1C3862.8,1019.0 3863.3,1019.9 3869.3,1026.2C3874.7,1031.9 3878.3,1037.8 3897.6,1073.6C3919.8,1114.5 3921.1,1117.4 3925.0,1132.7C3927.5,1142.9 3927.5,1148.0 3925.1,1152.9C3922.5,1158.0 3915.9,1163.8 3911.8,1164.5C3910.0,1164.8 3879.4,1165.0 3843.8,1164.8C3780.6,1164.5 3779.1,1164.5 3776.3,1162.5C3774.8,1161.3 3766.8,1150.3 3758.5,1138.0C3743.5,1115.5 3743.5,1115.5 3732.1,1087.5C3717.7,1052.3 3717.4,1051.7 3710.1,1044.5C3703.4,1038.0 3703.2,1037.5 3696.6,1013.8C3692.2,998.0 3691.0,995.7 3681.5,984.0C3672.3,972.7 3671.0,970.3 3658.0,938.5C3645.3,907.5 3645.4,907.7 3638.5,901.1C3631.6,894.4 3631.1,893.4 3626.4,878.0C3620.4,857.7 3619.1,856.0 3605.8,851.6C3598.3,849.0 3598.3,849.0 3547.8,850.9C3494.1,852.9 3492.8,853.0 3490.3,858.0C3489.3,860.0 3489.0,889.9 3489.0,1001.5C3489.0,1100.5 3488.7,1143.7 3487.9,1146.4C3486.4,1151.8 3475.8,1162.4 3470.4,1163.9C3465.7,1165.2 3355.0,1165.3 3350.6,1164.0ZM4338.5,1163.6C4333.3,1161.3 4323.2,1147.3 4321.1,1139.3C4320.3,1136.2 4320.5,1054.9 4322.0,825.0C4323.4,616.6 4323.7,513.6 4323.0,511.1C4322.1,507.6 4319.6,504.6 4316.0,502.4C4315.2,501.9 4277.2,501.3 4230.0,501.0C4135.5,500.4 4143.5,501.1 4134.8,493.2C4127.8,486.9 4128.0,488.9 4128.0,430.5C4128.0,372.1 4127.8,374.1 4134.8,367.8C4143.8,359.7 4114.7,360.5 4397.9,360.2C4578.3,360.1 4651.4,360.3 4654.3,361.1C4659.8,362.6 4670.4,373.1 4671.9,378.6C4673.4,384.0 4673.4,478.0 4671.9,483.5C4670.4,489.0 4666.5,493.9 4662.1,495.7C4659.3,496.9 4640.4,498.0 4571.3,501.0C4476.5,505.0 4480.2,504.6 4478.0,510.6C4477.4,512.2 4477.0,630.3 4477.0,827.8C4477.0,1052.7 4476.7,1143.6 4475.9,1146.4C4474.4,1151.8 4463.8,1162.4 4458.4,1163.9C4452.2,1165.6 4342.4,1165.3 4338.5,1163.6ZM6205.0,1162.8C6199.8,1160.1 6190.5,1148.6 6189.0,1142.8C6187.3,1136.8 6191.7,378.7 6193.4,374.7C6194.8,371.1 6201.1,365.1 6206.2,362.3C6211.5,359.4 6685.7,359.5 6691.0,362.4C6697.2,365.8 6701.8,370.1 6703.4,374.1C6704.8,377.5 6705.0,385.3 6705.0,430.8C6705.0,492.4 6705.7,488.0 6694.4,494.2C6681.3,501.4 6694.3,500.8 6513.2,503.0C6337.8,505.1 6344.9,504.8 6342.3,510.0C6340.0,514.5 6340.9,705.7 6343.3,709.3C6347.7,716.0 6335.4,715.4 6491.0,716.0C6570.6,716.3 6632.4,716.9 6633.5,717.4C6637.8,719.3 6642.3,723.4 6643.6,726.6C6645.4,730.8 6645.7,832.1 6643.9,838.4C6642.5,843.5 6635.3,850.6 6630.2,852.0C6627.6,852.6 6577.1,853.7 6487.7,855.0C6410.6,856.1 6348.2,857.3 6346.9,857.9C6341.1,860.0 6341.5,850.0 6341.0,1006.5C6340.5,1150.6 6340.5,1150.6 6337.7,1154.8C6336.2,1157.1 6333.1,1160.2 6330.8,1161.7C6326.6,1164.5 6326.6,1164.5 6268.1,1164.8C6209.5,1165.1 6209.5,1165.1 6205.0,1162.8ZM5573.0,1018.9C5618.6,1008.6 5615.2,1009.9 5649.0,989.5C5675.1,973.9 5677.2,972.3 5692.0,959.1C5709.0,943.9 5714.1,938.6 5717.0,933.0C5718.5,930.0 5721.4,925.9 5723.4,924.0C5726.1,921.5 5727.6,918.7 5729.1,913.8C5730.8,907.8 5732.1,906.0 5739.6,897.9C5744.2,893.0 5748.9,887.2 5749.9,885.2C5752.7,879.5 5774.1,824.1 5775.6,818.5C5777.7,810.8 5777.6,717.4 5775.5,710.3C5774.0,705.1 5745.2,634.2 5742.6,629.2C5741.8,627.6 5738.4,623.7 5735.1,620.5C5730.6,616.1 5728.6,613.4 5727.4,609.6C5726.5,606.8 5724.7,602.7 5723.5,600.5C5720.7,595.6 5687.7,562.9 5683.4,560.7C5681.7,559.8 5678.4,556.8 5676.0,554.1C5673.0,550.4 5667.0,545.9 5654.5,538.0C5634.4,525.3 5634.1,525.2 5623.5,524.0C5616.4,523.1 5613.5,522.1 5597.0,514.1C5586.8,509.2 5577.4,504.9 5576.0,504.6C5574.6,504.2 5557.1,503.1 5537.1,502.0C5500.7,500.0 5500.6,500.0 5478.1,501.9C5452.3,504.2 5453.3,503.9 5430.3,515.3C5415.9,522.4 5411.5,524.1 5403.9,525.5C5392.1,527.6 5390.5,528.3 5385.3,533.0C5382.9,535.3 5376.0,539.4 5369.6,542.5C5359.7,547.2 5357.7,548.6 5355.0,552.6C5353.1,555.3 5349.1,558.9 5345.2,561.5C5333.5,569.0 5319.9,584.0 5307.4,603.0C5305.4,606.0 5299.6,612.8 5294.5,618.1C5289.4,623.4 5284.3,629.5 5283.2,631.7C5280.9,636.2 5264.1,677.8 5261.6,685.4C5259.4,691.8 5252.7,779.4 5253.3,793.0C5253.7,801.9 5254.6,805.2 5267.9,846.5C5275.7,870.7 5283.0,892.3 5284.0,894.6C5285.1,896.8 5292.8,906.2 5301.1,915.6C5311.6,927.4 5317.2,934.5 5319.6,939.2C5323.0,945.9 5324.8,947.7 5334.9,954.7C5338.5,957.2 5341.5,960.4 5343.7,964.0C5345.5,967.0 5348.0,970.2 5349.2,971.1C5356.0,975.9 5441.2,1019.1 5446.5,1020.4C5451.2,1021.5 5500.4,1026.6 5523.0,1028.2C5529.0,1028.7 5532.5,1028.0 5573.0,1018.9ZM2842.2,892.0C2852.8,889.0 2853.9,877.1 2844.6,865.7C2842.2,862.7 2840.5,859.0 2839.0,853.5C2836.5,844.5 2834.8,841.3 2824.0,825.0C2813.0,808.6 2813.0,808.5 2805.1,782.4C2802.7,774.6 2800.9,770.9 2797.5,766.5C2793.1,760.8 2792.8,759.8 2790.0,744.9C2789.2,740.5 2787.9,738.1 2784.4,734.0C2778.7,727.3 2779.0,727.9 2762.0,688.2C2754.2,669.9 2746.9,653.9 2745.8,652.5C2740.9,646.2 2730.3,647.3 2726.3,654.5C2725.1,656.7 2717.3,676.7 2709.0,698.9C2691.9,744.6 2692.5,743.2 2686.5,750.0C2680.4,756.8 2679.0,760.0 2673.5,778.0C2667.9,796.3 2667.3,797.6 2656.0,814.5C2644.2,832.1 2643.9,832.9 2637.0,857.0C2629.2,884.5 2629.3,887.0 2637.6,888.6C2639.5,888.9 2681.0,890.0 2729.8,891.0C2843.6,893.2 2837.9,893.2 2842.2,892.0ZM3707.1,723.7C3715.0,720.7 3721.3,717.6 3723.6,715.6C3728.4,711.6 3730.8,710.2 3736.8,708.5C3741.9,706.9 3745.9,703.2 3763.4,683.6C3774.9,670.7 3775.8,669.2 3777.0,659.4C3777.8,653.1 3778.9,650.1 3783.2,642.1L3788.5,632.5L3788.5,611.4C3788.5,590.4 3788.5,590.4 3784.7,584.2C3781.7,579.3 3777.0,564.3 3777.0,559.4C3777.0,559.3 3775.4,557.2 3773.4,554.8C3771.4,552.5 3768.4,547.8 3766.8,544.5C3761.6,533.6 3752.8,525.8 3734.5,515.9C3710.3,502.8 3724.3,504.3 3604.4,502.0C3546.0,500.9 3499.0,500.5 3497.7,500.9C3492.0,503.1 3491.3,506.0 3489.0,536.0C3487.5,555.6 3491.2,719.5 3493.2,723.7C3495.8,729.2 3491.8,729.0 3597.0,728.7L3694.5,728.5L3707.1,723.7Z"/></svg>