<svg xmlns="http://www.w3.org/2000/svg" viewBox="0 0 3918 3497"><path fill="#fff" fill-rule="evenodd" d="M596.5,3494.9L515.5,3493.0L445.5,3481.0L375.5,3469.0L288.5,3441.9C240.7,3427.1 200.5,3414.2 199.3,3413.4C197.7,3412.4 197.0,3411.0 197.0,3408.9C197.0,3407.2 235.5,3278.0 282.5,3121.7C367.9,2837.5 367.9,2837.5 409.9,2714.0C450.7,2593.6 452.2,2589.6 467.4,2554.0C486.9,2508.5 486.6,2509.3 490.1,2507.5C492.9,2506.0 523.6,2494.6 529.4,2492.9C532.3,2492.1 563.1,2495.0 567.5,2496.6C568.6,2496.9 583.0,2504.7 599.5,2513.9L629.5,2530.5L659.6,2560.5C686.8,2587.7 690.0,2591.3 694.3,2599.0C696.9,2603.7 699.0,2608.3 699.0,2609.3C699.0,2612.5 665.2,2697.6 572.1,2928.5C479.3,3158.5 479.3,3158.5 469.9,3192.0C460.6,3225.5 460.6,3225.5 460.2,3241.0C459.7,3260.2 459.6,3259.9 472.6,3281.5C484.8,3301.7 481.6,3299.2 510.0,3311.0C533.1,3320.6 528.3,3319.7 572.7,3322.0L611.8,3324.0L647.7,3318.0C683.5,3312.0 683.5,3312.0 716.0,3301.9C748.5,3291.7 748.5,3291.7 783.5,3274.2C816.0,3258.0 820.0,3255.7 839.0,3242.4C859.6,3228.0 859.6,3228.0 892.0,3195.3L924.5,3162.5L948.5,3121.6C961.7,3099.2 973.2,3079.1 974.1,3077.1C975.0,3075.1 981.0,3051.6 987.4,3024.9L999.0,2976.5L995.0,2921.2C992.8,2890.9 990.8,2864.8 990.4,2863.3C990.0,2861.7 985.5,2846.1 980.4,2828.5C971.0,2796.5 971.0,2796.5 953.0,2758.5C934.9,2720.5 934.9,2720.5 907.8,2681.5C880.6,2642.5 880.6,2642.5 850.5,2612.2C820.9,2582.2 820.2,2581.6 798.0,2565.4C775.5,2549.0 775.5,2549.0 732.5,2528.6L689.5,2508.2L634.5,2494.6L579.5,2480.9L520.0,2481.2L460.5,2481.5L409.5,2494.8C381.4,2502.2 357.0,2508.8 355.3,2509.5C350.0,2511.7 234.8,2575.1 231.0,2577.9C224.0,2583.0 151.2,2645.9 149.6,2648.2C148.7,2649.4 148.0,2651.4 148.0,2652.5C147.9,2656.2 145.6,2658.7 128.7,2673.7C111.9,2688.6 111.9,2688.6 87.9,2722.5C63.9,2756.5 63.9,2756.5 48.1,2788.0C32.3,2819.5 32.3,2819.5 23.1,2849.0C18.0,2865.2 13.2,2879.5 12.4,2880.8C10.7,2883.5 5.6,2883.8 2.2,2881.4C-0.8,2879.3 -0.7,2877.1 3.5,2844.1C7.0,2816.6 7.0,2816.6 21.0,2774.6L35.0,2732.5L61.6,2685.0C76.2,2658.9 89.2,2635.9 90.4,2634.0C92.1,2631.5 139.1,2577.5 149.0,2566.6C149.5,2566.2 152.2,2565.0 155.2,2564.1C160.0,2562.5 161.4,2561.3 170.0,2551.1C178.7,2540.9 181.3,2538.6 201.0,2524.4C222.5,2508.8 222.5,2508.8 276.5,2481.9L330.5,2455.0L379.0,2441.5C427.5,2428.0 427.5,2428.0 471.6,2422.0L515.7,2416.0L585.2,2420.0C649.3,2423.7 655.4,2424.2 663.1,2426.4C667.7,2427.8 702.9,2438.6 741.3,2450.4L811.2,2471.9L884.8,2509.6C958.5,2547.4 958.5,2547.4 991.0,2569.7C1023.5,2592.0 1023.5,2592.0 1065.8,2630.2L1108.0,2668.5L1146.0,2720.5L1184.0,2772.5L1198.4,2803.5C1212.8,2834.5 1212.8,2834.5 1222.4,2867.5C1238.2,2921.9 1240.0,2935.5 1240.0,2998.7L1240.0,3048.5L1230.1,3094.0C1224.6,3119.0 1219.3,3142.0 1218.2,3145.0C1214.2,3156.0 1200.7,3190.6 1199.2,3193.5C1195.7,3200.3 1157.6,3265.7 1155.5,3268.5C1151.8,3273.5 1075.2,3357.3 1071.7,3360.2C1068.8,3362.6 966.3,3425.3 960.1,3428.4C958.7,3429.2 927.4,3440.4 890.5,3453.4L823.5,3477.0L761.6,3487.0C707.7,3495.7 698.3,3497.0 688.6,3496.9C682.5,3496.8 641.0,3495.9 596.5,3494.9ZM1245.5,3479.7C1226.4,3472.5 1227.9,3473.6 1209.4,3453.0C1190.0,3431.5 1191.3,3433.6 1182.1,3405.9L1175.0,3384.2L1175.0,3357.8C1175.0,3324.2 1177.7,3289.5 1181.4,3277.0C1194.4,3232.5 1192.0,3237.7 1226.6,3177.0L1258.3,3121.5L1284.1,3095.5C1302.6,3076.8 1310.0,3068.7 1310.5,3066.5C1310.9,3064.8 1311.6,3062.4 1312.1,3061.0C1312.6,3059.6 1331.6,3041.7 1354.3,3021.3C1395.5,2984.0 1395.5,2984.0 1439.5,2954.0L1483.4,2924.1L1515.5,2910.1L1547.5,2896.1L1575.4,2894.0L1603.2,2892.0L1623.6,2900.0L1644.0,2908.1L1729.1,2906.1C1816.6,2904.0 1818.0,2904.1 1818.0,2907.9C1818.0,2909.0 1781.8,3006.1 1737.5,3123.8C1654.9,3343.4 1655.8,3341.0 1658.1,3349.3C1659.7,3355.3 1662.2,3356.3 1674.7,3355.8C1685.5,3355.3 1685.5,3355.3 1706.5,3345.6C1727.5,3335.9 1727.5,3335.9 1746.0,3320.9C1756.2,3312.6 1766.6,3303.8 1769.1,3301.2C1772.8,3297.4 1794.4,3264.9 1798.7,3256.5C1799.3,3255.4 1855.4,3106.9 1923.5,2926.5C2056.3,2574.4 2049.8,2591.3 2052.6,2588.8C2053.6,2587.9 2069.1,2582.8 2087.0,2577.6C2121.2,2567.5 2122.4,2567.2 2233.0,2548.6C2239.3,2547.5 2250.0,2551.5 2250.0,2554.9C2250.0,2555.9 2233.5,2590.4 2213.4,2631.6C2176.9,2706.5 2176.9,2706.5 2132.4,2812.9C2107.9,2871.3 2088.0,2919.9 2088.2,2920.8C2088.8,2924.2 2092.5,2923.0 2109.8,2913.6C2126.4,2904.7 2128.9,2903.7 2147.5,2898.3L2167.5,2892.6L2207.2,2892.3L2246.9,2891.9L2268.7,2899.1C2294.5,2907.6 2295.8,2908.2 2307.0,2917.2C2315.7,2924.1 2315.7,2924.1 2329.2,2947.3C2344.8,2974.1 2343.9,2971.6 2348.5,2997.1C2352.0,3016.7 2352.0,3016.7 2350.0,3045.8C2348.9,3061.9 2347.8,3076.2 2347.4,3077.7C2346.0,3083.9 2320.8,3169.6 2319.6,3172.4C2317.8,3176.6 2278.4,3244.7 2275.5,3248.5C2271.2,3254.3 2171.9,3360.5 2168.8,3362.8C2167.1,3364.0 2164.8,3365.0 2163.6,3365.0C2160.0,3365.0 2156.2,3368.0 2133.5,3388.8L2111.5,3409.0L2059.5,3437.0L2007.5,3465.0L1971.5,3474.7L1935.5,3484.4L1897.8,3484.7L1860.0,3485.1L1840.8,3477.5C1819.5,3469.0 1819.8,3469.2 1800.8,3452.6C1787.1,3440.7 1787.1,3440.7 1775.0,3418.1C1761.0,3392.2 1760.1,3390.9 1756.7,3393.0C1755.4,3393.8 1744.3,3405.3 1732.1,3418.5C1701.2,3451.7 1707.5,3447.3 1666.8,3465.3L1631.5,3481.0L1591.8,3483.0L1552.1,3485.1L1539.8,3481.0C1529.4,3477.7 1524.6,3475.3 1509.0,3465.9C1498.8,3459.8 1489.4,3453.9 1488.2,3452.7C1486.9,3451.5 1482.7,3444.4 1478.9,3436.9C1467.8,3415.1 1467.0,3415.1 1438.4,3437.9L1419.5,3453.0L1389.5,3465.0C1344.2,3483.0 1334.6,3485.0 1291.6,3485.0L1259.5,3484.9L1245.5,3479.7ZM2362.0,3477.3C2344.5,3469.6 2344.5,3469.6 2327.7,3453.0C2310.8,3436.5 2310.8,3436.5 2302.9,3420.6L2294.9,3404.7L2295.2,3379.6L2295.5,3354.5L2352.9,3198.5C2410.2,3042.5 2410.2,3042.5 2439.7,2973.5C2459.7,2926.7 2469.9,2903.8 2471.6,2902.2C2474.1,2900.0 2474.1,2900.0 2558.1,2900.0C2616.9,2900.0 2642.7,2900.3 2644.2,2901.1C2645.8,2901.9 2646.1,2902.8 2645.6,2905.1C2645.3,2906.6 2609.0,2999.4 2564.9,3111.2C2475.5,3338.1 2476.5,3335.3 2483.6,3340.9C2487.8,3344.2 2513.1,3342.5 2521.3,3338.4C2529.4,3334.3 2559.9,3314.3 2563.7,3310.6C2566.0,3308.3 2583.9,3286.2 2603.4,3261.5L2639.0,3216.5L2675.0,3146.4L2711.1,3076.2L2743.9,2991.3C2779.3,2899.6 2778.1,2902.5 2781.0,2901.0C2782.2,2900.3 2811.1,2900.0 2865.4,2900.0C2961.7,2900.0 2952.5,2898.8 2951.8,2911.4C2951.3,2918.1 2950.1,2921.3 2930.1,2966.5C2908.8,3014.5 2908.8,3014.5 2852.8,3176.0C2796.7,3337.5 2796.7,3337.5 2796.3,3349.2C2795.5,3367.0 2797.2,3368.0 2827.8,3368.0C2847.0,3368.0 2847.1,3368.0 2857.5,3364.6C2863.2,3362.8 2869.9,3360.1 2872.2,3358.7C2878.0,3355.2 2931.9,3311.2 2934.2,3308.0C2935.8,3305.8 2955.6,3246.4 3045.6,2973.2C3062.2,2923.0 3066.6,2910.7 3068.4,2909.5C3071.1,2907.7 3232.4,2911.1 3236.0,2913.0C3238.4,2914.3 3238.5,2916.8 3236.5,2923.3C3233.5,2933.2 3236.0,2933.3 3251.5,2923.5C3262.1,2916.9 3265.7,2915.3 3281.6,2910.0L3299.8,2904.0L3329.9,2904.0L3359.9,2904.0L3387.7,2917.9C3415.5,2931.8 3415.5,2931.8 3424.0,2942.1C3436.1,2956.7 3436.2,2956.9 3444.5,2977.9L3452.0,2996.8L3450.1,3033.3C3448.7,3058.4 3447.6,3070.9 3446.7,3073.2C3445.1,3077.0 3416.1,3119.2 3412.3,3123.2C3410.8,3124.7 3401.1,3129.7 3388.6,3135.4L3367.4,3145.0L3352.4,3145.0C3335.7,3145.0 3332.6,3144.0 3329.5,3138.0C3327.6,3134.3 3327.0,3136.6 3337.8,3106.5C3346.4,3082.6 3346.5,3082.4 3346.8,3071.5C3347.2,3057.5 3346.9,3056.7 3336.3,3047.4C3322.5,3035.3 3320.4,3034.0 3315.1,3034.0C3306.8,3034.1 3262.6,3040.6 3259.5,3042.2C3257.8,3043.1 3247.6,3051.8 3236.7,3061.7C3216.9,3079.5 3216.9,3079.5 3200.7,3103.5C3184.6,3127.5 3184.6,3127.5 3156.4,3185.8L3128.2,3244.0L3088.5,3363.0C3057.6,3455.7 3048.4,3482.3 3046.7,3483.5C3044.0,3485.4 2882.4,3485.8 2878.9,3484.0C2876.0,3482.4 2876.4,3479.7 2883.7,3455.1C2890.4,3432.3 2891.5,3426.1 2889.3,3425.3C2888.6,3425.0 2882.3,3430.4 2875.3,3437.2C2862.5,3449.6 2862.5,3449.6 2837.0,3463.3C2797.3,3484.5 2797.2,3484.5 2744.0,3484.5L2701.5,3484.5L2665.7,3469.2C2646.0,3460.9 2628.9,3453.4 2627.9,3452.6C2624.9,3450.5 2604.9,3426.9 2603.9,3424.2C2603.4,3422.9 2603.0,3416.8 2603.0,3410.6C2603.0,3398.6 2602.1,3396.2 2598.3,3397.2C2597.3,3397.5 2573.2,3413.5 2544.7,3432.9C2516.2,3452.2 2491.7,3468.6 2490.2,3469.1C2488.7,3469.7 2477.4,3473.4 2465.0,3477.3L2442.5,3484.4L2411.0,3484.7L2379.5,3485.0L2362.0,3477.3ZM1991.6,3368.0C1995.5,3366.5 2031.8,3339.9 2036.1,3335.3C2038.1,3333.2 2053.5,3312.6 2070.2,3289.5C2100.7,3247.5 2100.7,3247.5 2116.3,3218.0C2132.0,3188.4 2132.0,3188.4 2149.7,3138.0L2167.4,3087.5L2167.7,3063.0C2168.1,3038.5 2168.1,3038.5 2165.3,3033.1C2161.7,3026.2 2158.7,3024.0 2150.3,3022.4C2136.5,3019.7 2136.0,3019.8 2109.0,3032.2L2084.5,3043.4L2065.0,3062.9L2045.5,3082.5L2022.3,3122.0C2009.6,3143.7 1998.0,3163.5 1996.7,3166.0C1995.3,3168.5 1981.9,3204.7 1966.9,3246.5L1939.5,3322.5L1939.2,3335.9C1938.8,3351.7 1939.3,3353.2 1946.6,3360.0C1951.4,3364.3 1952.9,3365.1 1959.8,3366.5C1964.0,3367.4 1968.0,3368.3 1968.5,3368.5C1970.9,3369.3 1989.1,3368.9 1991.6,3368.0ZM1404.5,3352.7C1419.5,3345.1 1419.5,3345.1 1445.6,3320.9L1471.8,3296.8L1511.9,3236.7L1552.0,3176.5L1569.7,3133.5L1587.5,3090.5L1587.8,3073.6C1588.0,3064.3 1587.8,3055.5 1587.5,3054.1C1586.7,3050.9 1570.8,3034.6 1566.9,3033.0C1560.7,3030.4 1550.8,3032.1 1531.2,3039.3C1521.1,3043.0 1511.2,3046.9 1509.2,3047.9C1505.2,3049.9 1473.8,3077.4 1470.4,3081.8C1469.3,3083.3 1452.8,3108.6 1433.9,3138.0L1399.5,3191.5L1376.2,3249.5C1363.4,3281.4 1352.5,3309.1 1352.0,3311.0C1350.5,3316.5 1354.3,3349.6 1356.8,3352.9C1361.1,3358.7 1368.4,3361.2 1379.5,3360.8C1389.5,3360.4 1389.5,3360.4 1404.5,3352.7ZM2426.5,2706.9C2359.5,2705.0 2359.5,2705.0 2289.5,2697.5C2251.0,2693.3 2218.2,2689.7 2216.7,2689.4C2211.7,2688.4 2211.5,2685.9 2215.4,2670.5C2218.8,2657.0 2219.9,2654.5 2247.4,2597.7C2263.1,2565.3 2276.0,2538.3 2276.1,2537.7C2276.5,2534.3 2275.7,2533.1 2272.8,2532.1C2267.9,2530.6 2255.8,2529.1 2253.0,2529.6C2181.1,2542.6 2044.5,2568.3 2042.7,2569.1C2039.1,2570.7 2038.7,2571.6 2019.0,2627.0C2006.1,2663.4 2000.4,2678.0 1998.8,2679.3C1996.9,2680.9 1995.4,2681.0 1986.6,2680.5C1981.0,2680.2 1917.8,2677.4 1846.0,2674.4L1715.4,2669.0L1649.5,2677.0L1583.5,2685.1L1531.5,2684.7C1479.5,2684.4 1479.5,2684.4 1468.0,2680.8C1453.9,2676.3 1449.8,2672.2 1454.8,2667.7C1455.7,2666.9 1481.1,2657.2 1511.1,2646.2C1541.1,2635.2 1567.3,2625.5 1569.3,2624.7C1575.5,2622.0 1623.3,2590.9 1627.7,2586.6C1630.0,2584.4 1648.8,2561.3 1669.4,2535.5L1707.0,2488.5L1725.0,2450.5L1743.0,2412.4L1756.7,2360.5L1770.4,2308.5L1770.4,2267.0L1770.5,2225.5L1752.7,2177.1L1735.0,2128.6L1707.3,2077.1L1679.6,2025.5L1648.4,1984.0L1617.2,1942.5L1572.9,1898.3C1539.8,1865.4 1527.7,1854.0 1525.5,1853.5C1519.7,1852.3 1518.1,1851.0 1510.8,1842.1C1504.2,1834.0 1500.4,1830.8 1471.0,1808.7C1439.8,1785.3 1436.3,1782.9 1383.5,1750.9C1328.5,1717.5 1328.5,1717.5 1253.0,1681.7L1177.5,1645.8L1096.5,1617.4L1015.5,1588.9L919.9,1565.0L824.3,1541.1L777.7,1535.2C749.1,1531.6 730.5,1528.8 729.6,1528.1C727.4,1526.3 727.6,1522.3 729.9,1521.0C731.2,1520.4 743.7,1520.0 763.9,1520.0C794.0,1520.0 800.6,1520.4 871.8,1526.0L947.6,1532.0L1013.6,1544.0C1079.5,1556.0 1079.5,1556.0 1137.8,1572.1C1196.2,1588.2 1196.2,1588.2 1260.8,1612.5C1325.5,1636.8 1325.5,1636.8 1388.2,1667.3C1457.1,1700.8 1453.8,1699.1 1457.9,1704.7C1460.4,1708.2 1465.5,1711.2 1498.1,1728.4L1535.5,1748.0L1585.5,1786.0C1635.5,1823.9 1635.5,1823.9 1653.0,1832.1C1692.0,1850.3 1694.5,1851.6 1697.0,1855.3C1700.3,1860.0 1701.8,1860.8 1723.0,1868.7C1741.5,1875.5 1741.5,1875.5 1754.4,1875.8C1770.5,1876.3 1771.0,1876.1 1778.2,1869.2C1786.7,1861.1 1787.0,1860.3 1787.0,1845.4C1787.0,1832.7 1787.0,1832.7 1775.4,1797.6C1763.7,1762.5 1763.7,1762.5 1745.5,1726.0C1728.4,1691.8 1726.9,1689.3 1722.8,1686.4C1718.7,1683.5 1716.2,1679.4 1690.7,1631.9C1663.0,1580.5 1663.0,1580.5 1652.0,1567.6C1639.8,1553.4 1639.0,1552.2 1636.6,1543.5C1634.4,1536.0 1633.2,1534.1 1613.5,1508.5C1595.8,1485.5 1595.2,1484.7 1592.2,1474.5C1590.2,1468.0 1589.0,1466.3 1576.5,1452.0C1563.5,1437.2 1561.2,1433.7 1518.4,1366.5C1493.0,1326.7 1472.1,1295.0 1470.0,1293.0C1468.0,1291.1 1464.5,1288.1 1462.3,1286.3C1456.1,1281.4 1449.1,1263.0 1453.4,1263.0C1454.9,1263.0 1457.4,1265.2 1481.4,1287.4C1495.9,1300.8 1500.2,1304.0 1503.5,1304.0C1507.4,1304.0 1511.5,1308.0 1560.1,1358.5C1610.1,1410.4 1611.2,1411.8 1612.4,1418.1C1612.9,1420.9 1621.1,1431.5 1650.5,1467.1C1688.0,1512.5 1688.0,1512.5 1727.3,1573.5C1763.2,1629.4 1767.3,1635.3 1775.6,1643.9C1788.6,1657.1 1790.1,1655.5 1785.6,1633.3C1783.0,1620.7 1783.0,1620.7 1783.0,1544.5L1783.0,1468.4L1789.0,1426.4L1795.0,1384.5L1813.1,1326.0L1831.3,1267.5L1848.8,1232.5C1866.2,1197.5 1866.2,1197.5 1892.7,1160.9L1919.1,1124.3L1957.4,1088.1C1995.7,1051.9 1995.7,1051.9 2020.6,1035.9C2046.9,1018.9 2049.1,1017.7 2051.5,1018.6C2055.7,1020.3 2051.8,1024.8 2024.6,1049.0C2012.9,1059.5 2012.8,1059.6 1992.0,1090.6C1972.6,1119.5 1970.1,1123.9 1955.9,1152.1C1940.8,1182.5 1940.7,1182.6 1924.4,1229.5C1908.6,1274.8 1907.8,1277.4 1902.0,1304.5L1895.9,1332.7L1896.2,1373.6L1896.5,1414.5L1901.4,1425.5C1908.0,1440.3 1908.0,1440.4 1919.8,1448.2C1932.2,1456.3 1930.6,1456.2 1957.8,1452.0C1984.7,1447.8 1982.1,1448.8 2014.0,1429.7C2042.5,1412.7 2042.5,1412.7 2062.5,1392.9C2076.7,1378.9 2083.4,1373.0 2085.5,1372.5C2087.2,1372.2 2089.7,1371.3 2091.2,1370.7C2092.6,1370.0 2114.8,1346.8 2140.4,1319.0C2187.3,1268.3 2191.5,1264.0 2195.4,1264.0C2199.1,1264.0 2204.1,1260.0 2236.2,1231.7C2267.7,1203.8 2267.7,1203.8 2305.6,1179.9L2343.5,1156.0L2413.5,1128.0L2483.5,1100.0L2520.0,1095.6C2565.9,1090.0 2578.6,1088.7 2583.0,1089.2L2586.5,1089.6L2582.6,1091.4C2580.4,1092.4 2571.2,1095.1 2562.1,1097.5C2550.6,1100.5 2531.1,1107.2 2498.5,1119.4L2451.5,1137.0L2391.5,1173.0L2331.5,1209.0L2278.6,1260.0C2249.5,1288.0 2224.7,1312.1 2223.5,1313.7C2222.3,1315.2 2206.7,1337.9 2188.9,1364.0C2156.6,1411.5 2156.6,1411.5 2138.7,1449.0C2120.8,1486.5 2120.8,1486.5 2106.4,1529.4C2092.1,1572.3 2092.1,1572.3 2080.3,1628.4C2068.1,1687.0 2067.5,1691.5 2069.9,1703.2C2071.9,1712.4 2073.8,1710.9 2077.6,1697.5C2078.5,1694.2 2088.0,1674.1 2098.6,1652.8C2117.6,1614.8 2118.5,1613.3 2144.5,1573.3C2171.0,1532.5 2171.0,1532.5 2191.6,1510.0C2211.7,1488.1 2214.2,1484.8 2215.5,1478.5C2216.3,1474.8 2283.4,1407.0 2289.3,1403.9C2294.9,1401.0 2298.4,1401.6 2298.8,1405.8C2299.1,1408.6 2298.2,1410.0 2291.3,1417.3C2283.5,1425.4 2283.2,1425.9 2257.6,1475.2L2231.8,1525.0L2187.9,1637.7C2163.7,1699.8 2142.8,1753.7 2141.4,1757.5C2140.1,1761.3 2131.3,1798.7 2121.8,1840.5L2104.6,1916.5L2104.2,1937.2C2103.8,1961.2 2103.5,1959.8 2114.4,1977.2C2123.7,1992.0 2123.7,1992.0 2137.7,1992.0C2145.5,1992.0 2150.2,1991.5 2152.6,1990.5C2158.9,1987.9 2205.1,1957.7 2210.1,1953.0C2214.8,1948.5 2326.0,1830.5 2335.5,1819.9C2338.2,1816.8 2348.3,1802.2 2357.7,1787.4C2375.0,1760.5 2375.0,1760.5 2407.6,1726.0C2439.0,1692.8 2442.1,1689.0 2443.5,1682.6C2444.2,1679.1 2444.6,1678.7 2494.0,1631.4C2550.6,1577.2 2546.0,1581.3 2551.4,1579.9C2555.6,1578.9 2557.1,1577.6 2564.6,1568.9C2573.7,1558.3 2576.3,1556.0 2579.5,1556.0C2583.3,1555.9 2587.8,1552.4 2623.7,1522.2C2659.8,1491.8 2659.8,1491.8 2706.1,1461.6C2752.5,1431.4 2752.5,1431.4 2814.1,1399.7C2873.7,1369.0 2876.9,1367.5 2919.6,1350.0C2963.5,1332.0 2963.5,1332.0 3001.5,1321.5C3047.8,1308.8 3054.7,1307.0 3058.5,1307.0C3065.6,1307.1 3058.9,1310.7 2998.2,1339.1C2951.3,1361.1 2953.2,1360.1 2949.1,1365.7C2946.5,1369.3 2941.2,1372.3 2901.3,1393.1C2856.5,1416.4 2856.5,1416.4 2800.0,1455.3C2735.1,1500.0 2743.5,1493.4 2698.8,1533.7C2664.1,1565.0 2659.2,1569.0 2655.5,1569.0C2651.8,1569.1 2649.3,1571.4 2632.1,1590.5C2614.7,1609.7 2611.1,1613.0 2607.5,1613.0C2606.4,1613.0 2604.3,1613.8 2602.8,1614.8C2598.4,1617.5 2530.9,1689.2 2529.5,1692.5C2528.8,1694.2 2527.8,1696.8 2527.4,1698.4C2526.8,1700.3 2523.4,1704.0 2518.1,1708.5C2510.9,1714.6 2509.4,1716.4 2508.1,1720.5C2506.7,1724.8 2505.3,1726.5 2497.0,1733.3C2480.4,1747.1 2448.6,1790.7 2409.8,1852.7C2379.1,1901.8 2379.0,1902.0 2353.9,1952.2C2328.7,2002.5 2328.7,2002.5 2306.4,2063.4L2284.1,2124.2L2268.3,2192.4L2252.5,2260.5L2252.2,2298.2L2251.9,2335.9L2258.0,2370.7C2266.9,2421.1 2286.7,2500.5 2301.6,2545.1C2315.0,2585.2 2314.9,2585.1 2344.5,2609.2C2355.5,2618.2 2365.7,2626.3 2367.2,2627.2C2368.6,2628.2 2391.8,2637.7 2418.7,2648.5C2467.5,2668.0 2467.5,2668.0 2510.0,2679.0C2533.4,2685.1 2554.0,2690.7 2555.8,2691.5C2559.8,2693.3 2560.4,2698.1 2556.8,2700.4C2553.0,2702.9 2513.6,2709.0 2502.8,2708.9C2497.7,2708.8 2463.3,2707.9 2426.5,2706.9ZM421.8,2091.1C391.6,2084.9 390.9,2084.7 389.1,2077.5C387.2,2069.8 387.9,2065.3 395.6,2036.1C403.2,2007.5 403.2,2007.5 417.1,1980.0L430.9,1952.5L457.1,1924.3L483.2,1896.2L505.4,1884.1L527.5,1872.1L559.5,1866.0C591.5,1860.0 591.5,1860.0 617.5,1860.0C643.6,1860.0 643.6,1860.0 671.0,1865.5C686.1,1868.5 699.3,1871.3 700.3,1871.6C703.0,1872.5 704.6,1877.2 706.0,1888.5C707.9,1903.8 707.6,1906.0 701.5,1926.0C696.1,1943.9 695.3,1945.6 678.3,1978.0L660.7,2011.5L636.1,2036.3L611.5,2061.1L591.5,2071.1C571.5,2081.1 571.5,2081.1 537.5,2089.0L503.5,2097.0L476.5,2096.9C449.5,2096.8 449.5,2096.8 421.8,2091.1ZM917.2,2024.4C895.8,2021.0 895.8,2021.0 872.7,2011.4C859.9,2006.2 847.9,2000.7 846.0,1999.2C840.6,1995.1 783.8,1945.1 780.9,1941.8C779.4,1940.2 771.2,1923.0 762.6,1903.7L747.0,1868.5L743.0,1842.5C738.9,1816.5 738.9,1816.5 740.5,1803.5C742.3,1789.0 743.0,1786.4 745.8,1785.6C748.0,1784.9 825.6,1802.2 831.1,1804.6C837.6,1807.5 893.4,1846.5 894.7,1849.1C895.4,1850.4 896.2,1852.8 896.5,1854.4C896.9,1856.4 901.6,1862.0 910.8,1871.4L924.5,1885.5L936.3,1915.1L948.0,1944.7L948.0,1984.8C948.0,2029.1 948.1,2028.1 941.7,2027.9C939.9,2027.8 928.9,2026.3 917.2,2024.4ZM3447.8,1966.5C3434.4,1964.8 3439.8,1966.7 3390.0,1946.3C3347.5,1929.0 3347.5,1929.0 3329.5,1917.0C3311.5,1905.0 3311.5,1905.0 3291.2,1882.8C3270.9,1860.5 3270.9,1860.5 3259.0,1836.8C3247.0,1813.1 3247.0,1813.1 3239.0,1780.8L3230.9,1748.5L3231.3,1708.5L3231.6,1668.5L3236.3,1652.0C3242.3,1631.1 3242.7,1630.1 3245.7,1629.4C3247.1,1629.0 3258.8,1630.4 3271.8,1632.4L3295.4,1636.0L3330.9,1651.7C3362.0,1665.5 3367.0,1668.1 3371.9,1672.5C3381.4,1681.0 3438.2,1734.9 3443.5,1740.4C3447.8,1744.9 3450.2,1749.1 3460.3,1771.1L3472.0,1796.7L3478.0,1830.6C3484.0,1864.5 3484.0,1864.5 3484.0,1886.5C3484.0,1908.5 3484.0,1908.5 3478.4,1936.5C3475.0,1953.5 3472.2,1965.2 3471.3,1966.2C3469.4,1968.3 3463.8,1968.4 3447.8,1966.5ZM2187.6,1865.0C2180.4,1860.3 2176.6,1857.1 2175.9,1855.3C2175.3,1853.7 2173.9,1837.2 2172.9,1818.5L2170.9,1784.5L2174.9,1768.7C2178.9,1752.9 2178.9,1752.9 2202.6,1707.2L2226.3,1661.5L2244.4,1643.2C2262.5,1624.9 2262.5,1624.9 2275.3,1618.4C2288.1,1612.0 2288.1,1612.0 2302.8,1612.0C2320.0,1612.0 2319.4,1611.7 2328.2,1622.8C2336.1,1632.7 2335.8,1632.0 2338.1,1658.0L2340.0,1680.6L2336.0,1700.4C2332.2,1719.4 2331.5,1721.6 2320.3,1749.9C2308.5,1779.5 2308.5,1779.5 2291.9,1804.5C2275.2,1829.5 2275.2,1829.5 2259.9,1843.0C2251.5,1850.4 2243.0,1857.7 2241.0,1859.2C2233.8,1864.6 2210.8,1872.0 2201.5,1872.0C2199.1,1872.0 2195.4,1870.1 2187.6,1865.0ZM411.0,1834.7L370.5,1824.5L334.0,1803.5L297.5,1782.5L257.6,1742.9C224.4,1709.9 217.8,1702.8 217.8,1700.5C217.7,1698.4 220.0,1695.5 228.1,1687.3C238.5,1676.9 238.5,1676.9 267.4,1662.4L296.2,1647.8L345.9,1635.9L395.5,1624.0L431.5,1624.0L467.5,1624.0L493.5,1630.0L519.4,1636.0L544.0,1649.8C557.5,1657.5 577.7,1668.8 589.0,1675.1L609.5,1686.5L647.3,1724.0C669.3,1745.9 685.3,1762.5 685.7,1764.0C686.1,1765.7 685.3,1768.3 682.9,1772.7C676.8,1784.2 676.2,1784.7 644.5,1801.5C615.1,1817.2 615.1,1817.2 576.8,1828.8L538.5,1840.3L514.0,1841.1C500.5,1841.5 481.2,1842.6 471.0,1843.4C460.9,1844.3 452.3,1845.0 452.0,1845.0C451.7,1844.9 433.3,1840.3 411.0,1834.7ZM3118.0,1826.3C3108.1,1825.0 3105.8,1824.2 3077.5,1811.9C3061.0,1804.7 3045.9,1797.8 3044.0,1796.5C3040.0,1793.9 2994.3,1752.1 2991.8,1748.7C2990.9,1747.5 2984.2,1731.2 2976.8,1712.5L2963.5,1678.5L2963.2,1641.9C2962.9,1605.2 2962.9,1605.2 2966.1,1595.4C2971.2,1579.1 2970.0,1579.7 2994.5,1582.5C3007.5,1584.1 3007.5,1584.1 3033.5,1595.1C3047.8,1601.2 3061.1,1607.2 3063.0,1608.5C3067.0,1611.1 3112.7,1652.9 3115.2,1656.3C3116.6,1658.2 3141.6,1717.8 3143.4,1723.5C3143.7,1724.6 3144.9,1736.1 3146.0,1749.0C3148.0,1772.5 3148.0,1772.5 3144.4,1798.0C3142.4,1812.1 3140.2,1824.5 3139.4,1825.8C3137.7,1828.4 3134.2,1828.5 3118.0,1826.3ZM1596.7,1737.5C1581.9,1731.2 1568.4,1725.0 1566.7,1723.8C1561.1,1719.9 1485.6,1655.0 1483.3,1652.2C1479.9,1647.9 1452.9,1603.9 1451.4,1600.0C1450.7,1598.1 1448.5,1589.3 1446.5,1580.5C1443.1,1564.4 1443.1,1564.4 1445.0,1555.1C1447.2,1544.5 1448.0,1543.3 1459.6,1534.4C1465.8,1529.6 1467.2,1529.0 1471.4,1529.0C1477.5,1529.0 1527.1,1534.7 1533.0,1536.1C1535.7,1536.7 1548.9,1544.0 1566.5,1554.6C1595.5,1572.1 1595.5,1572.1 1616.5,1591.1C1636.8,1609.5 1639.2,1612.2 1640.5,1618.4C1640.9,1620.4 1645.7,1626.0 1654.8,1635.4C1668.6,1649.5 1668.6,1649.5 1678.3,1671.1L1688.0,1692.6L1688.0,1711.4C1688.0,1732.6 1688.1,1732.1 1680.1,1740.3C1671.5,1749.2 1672.4,1749.0 1646.3,1749.0L1623.5,1749.0L1596.7,1737.5ZM819.6,1737.0C795.9,1729.2 795.7,1729.1 779.4,1718.9C763.2,1708.7 762.9,1708.4 740.7,1686.0L718.3,1663.5L703.0,1636.6C679.1,1594.7 678.7,1595.7 723.2,1585.6L747.9,1580.0L794.7,1583.9C820.4,1586.1 842.8,1588.3 844.4,1588.9C847.6,1590.2 903.3,1621.4 906.7,1623.9C908.0,1624.8 917.8,1635.2 928.5,1647.0C948.0,1668.5 948.0,1668.5 961.0,1692.6C969.5,1708.3 974.0,1717.8 974.0,1719.8C974.0,1723.8 966.0,1734.7 961.7,1736.5C959.9,1737.2 947.9,1739.4 935.0,1741.4C911.5,1745.0 911.5,1745.0 877.5,1745.0L843.5,1745.0L819.6,1737.0ZM2752.6,1715.8C2748.1,1708.9 2745.1,1696.9 2732.6,1635.8C2731.0,1628.2 2731.0,1628.2 2737.0,1590.3L2742.9,1552.5L2750.9,1536.5C2758.5,1521.2 2759.5,1519.8 2772.4,1505.0C2779.9,1496.5 2787.0,1488.8 2788.3,1487.9C2789.5,1487.0 2806.7,1476.9 2826.4,1465.5C2856.6,1448.0 2863.1,1444.6 2867.1,1444.2C2875.7,1443.4 2875.6,1443.3 2886.5,1476.0L2896.1,1505.0L2895.7,1540.8L2895.4,1576.5L2889.7,1596.5C2884.3,1615.2 2883.4,1617.4 2875.9,1630.6C2867.8,1644.7 2867.8,1644.7 2845.2,1667.2L2822.5,1689.7L2797.7,1703.0C2774.8,1715.2 2772.3,1716.3 2765.7,1717.1C2755.1,1718.3 2754.2,1718.2 2752.6,1715.8ZM3458.3,1660.5C3438.4,1658.7 3420.8,1656.8 3419.3,1656.2C3416.8,1655.4 3357.4,1620.8 3352.5,1617.4C3351.4,1616.6 3345.2,1609.8 3338.7,1602.2C3327.4,1589.1 3326.5,1587.7 3316.9,1568.5C3306.9,1548.5 3306.9,1548.5 3301.0,1522.5C3295.0,1496.5 3295.0,1496.5 3295.0,1476.7C3295.0,1464.9 3295.4,1456.1 3296.0,1454.9C3297.5,1452.3 3299.8,1452.4 3343.0,1456.5L3379.5,1460.0L3409.0,1473.7L3438.5,1487.4L3457.2,1505.8C3475.8,1524.2 3475.8,1524.2 3485.9,1542.3C3495.1,1559.0 3496.4,1562.0 3501.3,1578.5C3504.3,1588.4 3507.1,1597.8 3507.4,1599.5C3508.8,1605.8 3511.8,1660.5 3510.9,1662.2C3509.6,1664.7 3502.3,1664.4 3458.3,1660.5ZM2970.0,1543.4C2932.1,1537.0 2934.2,1537.5 2932.8,1534.6C2931.9,1532.4 2939.7,1485.4 2943.0,1474.0C2943.5,1472.2 2953.3,1453.6 2964.7,1432.7L2985.5,1394.5L3006.4,1373.3L3027.2,1352.2L3055.4,1336.1L3083.5,1320.0L3124.5,1311.1C3147.1,1306.2 3168.0,1301.7 3171.0,1301.1C3175.7,1300.1 3184.6,1300.8 3234.9,1305.9C3291.5,1311.6 3293.3,1311.8 3295.6,1314.2C3300.2,1318.8 3299.8,1321.1 3289.6,1354.0C3280.0,1384.4 3280.0,1384.4 3261.9,1416.6L3243.8,1448.8L3216.6,1475.6C3189.6,1502.4 3189.5,1502.5 3176.5,1509.9C3169.3,1514.0 3159.0,1520.0 3153.5,1523.2C3143.4,1529.0 3143.4,1529.0 3099.6,1539.0L3055.7,1549.0L3028.6,1548.9C3001.5,1548.8 3001.5,1548.8 2970.0,1543.4ZM3687.5,1544.9C3673.9,1541.5 3668.2,1539.5 3649.5,1531.0C3627.5,1521.0 3627.5,1521.0 3600.5,1499.5C3566.5,1472.4 3567.0,1472.9 3567.0,1464.8C3567.0,1456.4 3567.3,1456.0 3588.6,1436.8C3612.9,1414.7 3608.2,1417.6 3658.6,1393.4L3703.5,1371.9L3745.5,1372.3L3787.5,1372.6L3805.4,1378.3C3821.6,1383.4 3825.2,1385.0 3845.4,1396.0C3868.3,1408.5 3877.1,1415.0 3911.4,1445.3C3919.8,1452.8 3919.8,1453.0 3910.3,1469.3C3903.5,1481.1 3903.5,1481.1 3875.5,1503.0C3847.5,1525.0 3847.5,1525.0 3829.4,1533.0C3811.3,1541.0 3811.3,1541.0 3795.9,1543.0C3784.6,1544.4 3708.4,1549.4 3704.0,1548.9C3703.7,1548.9 3696.3,1547.1 3687.5,1544.9ZM493.5,1540.3C492.4,1540.1 482.5,1537.4 471.5,1534.4C451.5,1528.9 451.5,1528.9 423.4,1512.9L395.3,1496.9L373.7,1475.2C351.3,1452.7 349.7,1450.5 352.2,1445.3C353.4,1442.7 388.1,1412.7 397.5,1406.1C399.7,1404.5 416.8,1397.2 435.5,1389.9L469.5,1376.5L506.0,1376.5L542.5,1376.5L560.9,1382.2C577.9,1387.5 580.8,1388.8 601.4,1400.0C623.5,1412.0 623.5,1412.0 648.5,1435.1C662.2,1447.7 674.0,1459.1 674.7,1460.3C676.4,1463.4 676.3,1470.1 674.5,1472.8C672.4,1475.7 627.6,1510.2 622.5,1512.7C620.3,1513.8 603.4,1519.7 584.9,1525.9L551.4,1537.0L524.1,1539.0C509.1,1540.1 496.5,1540.9 496.2,1540.9C495.8,1540.8 494.6,1540.6 493.5,1540.3ZM817.5,1456.4C799.6,1453.0 799.6,1453.0 770.0,1439.3C743.7,1427.0 738.4,1424.1 721.5,1412.9C702.5,1400.2 702.5,1400.2 676.0,1372.0C635.7,1329.0 640.6,1335.9 622.6,1297.7C607.0,1264.5 607.0,1264.5 601.0,1238.6C595.1,1212.7 595.1,1212.7 593.0,1174.7L591.0,1136.7L594.5,1111.6C598.4,1084.2 598.9,1082.3 602.2,1081.5C603.5,1081.2 616.0,1083.4 630.0,1086.4C655.5,1091.9 655.5,1091.9 686.4,1107.2C735.0,1131.3 738.9,1134.3 779.3,1179.7L811.1,1215.5L823.6,1240.4C836.2,1265.2 836.2,1265.2 844.1,1298.9L852.0,1332.5L852.0,1384.3C852.0,1436.0 852.0,1436.0 848.5,1447.0C843.6,1462.1 845.2,1461.6 817.5,1456.4ZM3389.0,1443.9C3358.3,1431.6 3319.1,1414.4 3317.1,1412.2C3312.6,1407.2 3314.1,1401.8 3325.3,1383.9C3334.9,1368.6 3335.1,1368.3 3359.7,1344.0L3384.5,1319.4L3398.0,1314.3C3405.4,1311.5 3421.5,1305.3 3433.7,1300.6L3455.9,1292.0L3493.7,1294.0L3531.5,1296.0L3562.8,1310.7C3580.0,1318.8 3595.0,1326.3 3596.1,1327.3C3599.0,1330.0 3598.5,1331.4 3586.4,1353.4C3576.3,1371.8 3575.4,1373.2 3560.4,1390.0C3551.9,1399.6 3544.0,1408.2 3542.7,1409.1C3540.7,1410.7 3502.2,1433.3 3497.3,1435.9C3496.0,1436.5 3487.1,1438.8 3477.4,1441.0C3459.7,1445.0 3459.7,1445.0 3425.6,1444.9C3405.4,1444.9 3390.5,1444.5 3389.0,1443.9ZM1231.5,1418.9L1175.5,1413.0L1130.3,1391.4C1105.5,1379.5 1083.8,1368.6 1082.1,1367.1C1080.4,1365.7 1065.5,1350.1 1049.0,1332.5L1018.9,1300.5L992.9,1248.5L966.9,1196.5L963.4,1177.0C961.5,1166.3 960.2,1156.5 960.5,1155.3C961.3,1151.9 963.1,1151.4 986.6,1147.5L1007.7,1144.0L1065.1,1150.0C1107.1,1154.3 1124.0,1156.4 1128.0,1157.9C1137.4,1161.2 1173.4,1175.1 1176.0,1176.5C1180.7,1178.9 1224.5,1206.2 1227.2,1208.3C1231.6,1211.8 1286.0,1274.1 1288.5,1278.5C1289.7,1280.7 1300.9,1305.5 1313.3,1333.5C1335.9,1384.5 1335.9,1384.5 1337.5,1396.5C1339.6,1412.7 1339.5,1414.6 1336.8,1416.4C1334.5,1417.9 1294.4,1425.1 1289.8,1424.9C1288.6,1424.8 1262.3,1422.1 1231.5,1418.9ZM2552.5,1415.0C2527.2,1413.2 2525.5,1412.9 2524.0,1409.9C2523.4,1408.9 2523.0,1395.7 2523.0,1378.3L2523.0,1348.4L2531.0,1312.4C2538.9,1276.5 2538.9,1276.5 2548.9,1256.5C2558.9,1236.5 2558.9,1236.5 2575.2,1218.2C2591.5,1200.0 2591.5,1199.9 2611.0,1186.4C2621.7,1178.9 2631.6,1172.4 2633.0,1171.8C2634.4,1171.3 2649.2,1166.7 2666.0,1161.7L2696.5,1152.5L2726.2,1152.2C2755.2,1151.9 2755.9,1151.9 2758.0,1154.0C2760.1,1156.1 2760.1,1156.5 2759.8,1201.8L2759.5,1247.5L2750.2,1278.5C2745.1,1295.5 2740.0,1311.0 2738.9,1312.8C2737.8,1314.7 2725.9,1329.9 2712.3,1346.6L2687.6,1376.9L2661.5,1391.0L2635.4,1405.0L2609.5,1411.0C2595.2,1414.3 2581.9,1416.9 2580.0,1416.9C2578.1,1416.8 2565.7,1416.0 2552.5,1415.0ZM1994.5,1319.2C1990.4,1316.6 1984.2,1309.6 1983.4,1306.6C1983.1,1305.3 1983.0,1294.4 1983.3,1282.3C1983.9,1250.3 1985.2,1246.4 2010.5,1203.0C2029.5,1170.5 2029.5,1170.5 2048.3,1151.4C2067.1,1132.2 2067.1,1132.2 2084.8,1122.4C2102.5,1112.5 2102.5,1112.5 2114.0,1112.2C2125.0,1111.9 2125.7,1112.0 2130.9,1114.7C2139.7,1119.3 2139.9,1119.8 2142.1,1143.1C2144.0,1163.3 2144.0,1163.6 2142.0,1171.2C2137.4,1189.1 2135.1,1194.1 2116.0,1228.6L2096.7,1263.5L2078.2,1282.2C2059.8,1300.8 2059.8,1300.8 2042.1,1310.7L2024.5,1320.5L2011.0,1320.8C1999.2,1321.0 1997.1,1320.8 1994.5,1319.2ZM272.5,1303.8C239.9,1292.1 223.0,1284.6 211.3,1276.8C199.2,1268.7 198.9,1268.4 175.3,1241.2C147.1,1208.8 147.5,1209.3 145.0,1200.9C143.8,1197.1 142.0,1193.4 140.5,1192.0C137.0,1188.7 137.2,1184.4 141.1,1179.7C143.5,1176.7 148.7,1173.7 164.3,1165.9C184.4,1155.8 184.4,1155.8 209.9,1149.9C235.5,1144.0 235.5,1144.0 257.7,1144.0C279.9,1144.0 279.9,1144.0 303.6,1149.9L327.3,1155.9L351.5,1172.0C375.6,1188.1 375.6,1188.1 393.6,1208.0C410.6,1227.0 412.0,1228.8 420.9,1244.6C435.2,1269.9 435.6,1268.9 403.0,1285.3L379.5,1297.1L356.0,1301.0C332.5,1305.0 332.5,1305.0 304.0,1304.9C286.4,1304.9 274.4,1304.4 272.5,1303.8ZM2950.9,1294.1C2949.5,1293.1 2946.3,1287.7 2943.7,1282.3C2939.2,1272.9 2938.7,1271.1 2935.0,1248.9C2931.2,1226.5 2931.0,1224.6 2931.0,1202.8C2931.0,1180.1 2931.0,1180.1 2936.9,1156.5C2942.8,1132.8 2942.8,1132.8 2955.0,1110.5C2967.1,1088.3 2967.1,1088.3 2987.8,1067.8L3008.5,1047.4L3049.8,1028.7C3072.5,1018.4 3092.4,1010.0 3093.9,1010.0C3101.2,1010.0 3103.3,1014.2 3110.5,1043.1L3116.1,1065.5L3115.7,1103.0L3115.4,1140.5L3109.7,1160.3C3104.8,1177.5 3102.9,1182.3 3095.6,1196.8C3087.1,1213.5 3087.1,1213.5 3070.0,1232.5C3050.2,1254.5 3053.0,1252.1 3028.3,1267.8C3005.8,1282.1 3009.9,1280.3 2979.2,1289.1C2951.2,1297.0 2954.0,1296.5 2950.9,1294.1ZM1665.0,1243.3C1664.2,1243.0 1649.1,1235.2 1631.4,1225.8L1599.4,1208.9L1574.8,1184.2L1550.3,1159.5L1534.6,1131.9C1518.9,1104.3 1518.9,1104.3 1514.9,1088.4C1510.9,1072.5 1510.9,1072.5 1511.2,1041.0L1511.5,1009.5L1522.2,970.5C1535.4,922.9 1534.5,925.0 1540.7,925.0C1546.0,925.0 1564.4,927.5 1567.5,928.6C1568.6,929.0 1583.0,936.7 1599.5,945.9L1629.5,962.5L1650.7,983.4L1671.9,1004.3L1685.9,1030.4C1699.9,1056.5 1699.9,1056.5 1704.0,1073.1C1708.1,1089.8 1708.1,1089.8 1707.8,1126.6L1707.5,1163.5L1698.1,1196.5C1693.0,1214.7 1688.2,1230.6 1687.5,1232.0C1683.5,1239.6 1671.5,1245.6 1665.0,1243.3ZM3178.1,1223.9C3175.0,1222.7 3174.9,1221.2 3175.2,1182.0L3175.5,1145.5L3188.7,1104.7C3196.0,1082.2 3202.8,1062.3 3203.9,1060.5C3205.0,1058.7 3216.0,1045.3 3228.5,1030.7C3251.2,1004.3 3251.2,1004.3 3269.3,992.1L3287.5,980.0L3330.0,966.3L3372.5,952.6L3398.0,952.3C3418.8,952.0 3423.9,952.2 3425.4,953.3C3427.8,955.1 3427.9,954.8 3423.5,1011.4L3420.0,1056.3L3414.6,1069.4C3411.7,1076.6 3405.6,1091.7 3401.0,1103.0L3392.6,1123.5L3361.6,1154.6L3330.5,1185.7L3300.9,1199.4L3271.2,1213.1L3248.0,1217.0C3235.3,1219.1 3216.0,1221.6 3205.2,1222.5C3194.4,1223.3 3184.3,1224.2 3182.9,1224.3C3181.4,1224.5 3179.3,1224.3 3178.1,1223.9ZM1357.5,1200.3C1341.9,1196.7 1330.5,1192.4 1317.4,1184.8C1303.6,1177.0 1302.8,1176.4 1286.8,1160.1C1270.3,1143.5 1270.3,1143.5 1258.6,1124.0C1247.0,1104.5 1247.0,1104.5 1237.5,1076.0C1227.7,1046.7 1227.0,1043.3 1229.4,1037.5C1231.5,1032.7 1233.8,1031.5 1250.0,1027.5L1264.5,1024.0L1309.9,1026.0L1355.4,1028.1L1371.5,1035.1C1391.0,1043.7 1391.9,1044.2 1409.6,1059.8C1423.6,1072.0 1424.1,1072.6 1435.9,1090.4C1447.9,1108.5 1448.1,1108.8 1459.6,1137.5C1472.4,1169.5 1472.5,1169.8 1469.0,1185.8C1467.5,1192.7 1466.1,1193.5 1449.2,1197.7C1435.6,1201.0 1435.6,1201.0 1397.5,1200.9C1376.6,1200.8 1358.6,1200.6 1357.5,1200.3ZM3457.5,1168.3C3446.4,1165.6 3434.1,1161.4 3432.3,1159.8C3429.9,1157.6 3428.0,1151.1 3428.0,1145.3C3428.0,1143.2 3430.5,1134.1 3433.5,1125.0C3438.9,1108.9 3439.4,1107.8 3454.0,1084.1C3472.8,1053.6 3469.6,1057.6 3489.0,1040.4C3508.6,1023.1 3505.5,1024.8 3542.4,1011.0L3571.8,1000.0L3603.7,1000.0C3635.7,1000.0 3635.7,1000.0 3651.5,1003.5C3678.7,1009.6 3678.5,1009.3 3667.5,1042.0C3660.1,1064.2 3659.8,1064.7 3647.9,1084.7C3635.7,1104.9 3635.7,1104.9 3612.6,1126.0C3599.9,1137.7 3587.9,1148.0 3585.8,1149.1C3583.8,1150.1 3571.4,1154.9 3558.3,1159.7L3534.5,1168.4L3497.0,1168.6C3476.4,1168.7 3458.6,1168.6 3457.5,1168.3ZM445.5,1112.3C444.4,1112.0 431.8,1108.5 417.5,1104.4C391.5,1097.0 391.5,1097.0 371.3,1084.8C351.1,1072.7 351.0,1072.6 336.7,1058.1L322.4,1043.5L304.7,1006.0L287.0,968.5L287.0,926.2C287.0,877.2 286.5,879.5 296.3,880.5C299.1,880.8 310.7,881.7 322.0,882.5C345.0,884.2 342.6,883.6 365.2,891.9C388.2,900.2 386.5,899.2 420.9,927.1L451.6,952.1L461.7,968.3C467.2,977.2 472.1,985.4 472.5,986.5C472.9,987.6 476.4,998.6 480.3,1011.0L487.5,1033.5L487.8,1071.2C488.1,1108.1 488.0,1109.0 486.0,1111.0C484.1,1112.9 482.9,1113.0 465.8,1112.9C455.7,1112.8 446.6,1112.6 445.5,1112.3ZM1001.5,1099.4C973.7,1092.5 978.4,1094.6 944.3,1074.2L915.1,1056.7L897.1,1036.7C879.1,1016.6 879.1,1016.6 868.1,996.4C862.0,985.3 857.0,975.4 857.0,974.3C857.0,971.4 859.9,969.3 878.5,958.2C895.5,948.0 895.5,948.0 923.5,940.3L951.5,932.6L983.5,932.3L1015.5,931.9L1039.4,937.9C1063.3,943.9 1063.3,943.9 1083.5,956.0C1103.7,968.2 1103.7,968.2 1125.4,991.8C1147.1,1015.5 1147.1,1015.5 1158.5,1038.2C1164.8,1050.7 1170.0,1061.8 1170.0,1062.8C1170.0,1065.6 1168.2,1066.9 1147.0,1078.4L1127.5,1088.9L1097.9,1094.9C1073.4,1099.8 1029.2,1105.8 1023.8,1105.0C1023.6,1104.9 1013.6,1102.4 1001.5,1099.4ZM2721.5,1092.3C2715.0,1090.7 2658.0,1074.8 2655.7,1073.8C2652.2,1072.4 2651.0,1070.2 2651.0,1064.8C2651.0,1061.4 2654.9,1051.9 2671.0,1016.5L2691.0,972.4L2717.1,940.3L2743.2,908.2L2782.3,884.7C2825.9,858.6 2821.7,860.4 2856.2,853.0L2879.8,848.0L2929.0,850.0C2956.1,851.1 2979.4,852.3 2980.8,852.6C2990.7,854.9 3037.0,868.5 3039.2,869.8C3040.6,870.6 3042.3,872.4 3042.9,873.7C3045.7,879.9 3044.7,883.0 3025.7,925.0C3008.1,964.1 3007.0,966.1 2995.3,983.5C2983.6,1001.0 2982.6,1002.1 2960.4,1024.0C2937.5,1046.5 2937.5,1046.5 2913.5,1061.2C2885.9,1078.0 2889.8,1076.6 2845.0,1086.0L2811.6,1093.0L2767.5,1092.9C2743.3,1092.8 2722.6,1092.6 2721.5,1092.3ZM1875.2,1030.0C1856.1,1021.2 1855.5,1020.8 1831.7,1003.0C1807.5,985.0 1807.5,985.0 1789.3,962.7C1771.0,940.5 1771.0,940.5 1761.0,918.5C1751.0,896.4 1751.0,896.4 1747.0,874.4L1743.0,852.5L1745.0,823.0C1746.1,806.8 1747.6,791.2 1748.4,788.5C1751.4,777.4 1766.4,730.3 1767.8,727.5C1772.8,717.4 1791.7,686.1 1794.1,683.8C1796.9,681.1 1797.0,681.1 1801.7,682.5C1808.5,684.5 1839.0,695.8 1840.4,696.8C1841.0,697.2 1851.8,705.2 1864.3,714.6L1887.2,731.5L1907.6,758.0C1928.0,784.5 1928.0,784.5 1938.0,808.7L1948.1,832.9L1947.8,882.2L1947.5,931.5L1939.8,955.9C1932.1,980.1 1931.9,980.5 1917.4,1007.9C1909.3,1023.1 1902.1,1036.3 1901.2,1037.2C1898.7,1040.2 1895.3,1039.2 1875.2,1030.0ZM707.5,1024.9C675.5,1016.9 675.5,1016.9 658.0,1007.3C640.5,997.7 640.5,997.7 619.7,977.1L598.8,956.5L586.9,932.5C574.9,908.5 574.9,908.5 570.9,890.5C566.9,872.5 566.9,872.5 568.5,848.5C570.5,818.2 570.7,816.3 573.1,813.9C575.0,812.0 576.2,811.9 596.8,812.2C618.5,812.5 618.5,812.5 645.4,819.8C678.4,828.8 674.4,827.2 692.5,838.5C706.9,847.6 708.4,848.8 726.1,866.7L744.5,885.5L758.0,920.0L771.5,954.5L771.8,991.7C772.1,1037.4 774.1,1033.0 753.8,1033.0C739.5,1032.9 739.5,1032.9 707.5,1024.9ZM2197.5,982.9C2187.0,976.8 2186.8,976.5 2172.5,948.0C2159.3,921.5 2159.3,921.5 2151.4,894.5L2143.5,867.5L2143.5,836.5L2143.5,805.5L2149.3,785.0C2154.9,765.0 2155.3,764.0 2165.1,746.4C2174.9,728.7 2175.4,728.0 2193.3,708.2C2211.5,687.9 2211.5,687.9 2236.0,671.0C2250.6,660.9 2261.5,654.0 2262.9,654.0C2264.5,654.0 2268.0,656.6 2274.2,662.8C2283.2,671.5 2283.2,671.5 2299.6,704.2C2316.0,736.9 2316.0,736.9 2322.1,761.2L2328.1,785.5L2327.7,811.0C2327.3,836.5 2327.3,836.5 2321.6,856.5C2315.9,876.5 2315.9,876.5 2301.8,900.7C2287.7,924.8 2287.7,924.8 2267.1,945.3C2246.5,965.7 2246.5,965.7 2228.6,976.4C2207.8,988.7 2207.5,988.8 2197.5,982.9ZM2425.3,980.8C2422.6,977.8 2409.1,956.5 2407.3,952.3C2406.6,950.5 2403.5,939.0 2400.5,926.8L2394.9,904.5L2396.9,870.5L2398.9,836.5L2410.9,812.5L2422.8,788.5L2443.7,767.9C2464.5,747.3 2464.5,747.3 2484.2,736.7C2495.0,730.8 2504.7,726.0 2505.8,726.0C2508.8,726.0 2511.0,728.4 2519.8,741.0C2527.9,752.6 2532.0,762.9 2538.9,789.6C2540.5,795.6 2536.7,872.5 2534.5,877.6C2532.1,883.5 2497.4,938.3 2494.3,941.1C2490.3,944.9 2432.8,981.8 2429.9,982.5C2428.1,982.9 2426.9,982.5 2425.3,980.8ZM3164.9,912.1C3162.5,910.6 3161.6,907.7 3156.0,885.0L3150.9,864.5L3151.3,826.5L3151.7,788.5L3157.3,770.7C3162.2,755.0 3164.1,750.7 3172.6,735.2C3182.3,717.5 3182.3,717.5 3200.4,699.2L3218.5,680.9L3258.2,660.9C3289.1,645.5 3298.8,641.0 3301.7,641.0C3307.9,641.0 3317.3,643.7 3319.1,645.8C3320.0,647.0 3322.9,659.1 3326.3,676.2L3332.0,704.6L3330.0,736.5L3327.9,768.5L3320.8,790.0C3316.9,801.8 3312.8,813.3 3311.7,815.5C3309.2,820.5 3273.7,866.9 3270.6,869.2C3267.8,871.3 3223.4,898.7 3220.0,900.5C3218.6,901.1 3209.6,904.1 3200.0,907.0C3182.0,912.4 3168.6,914.4 3164.9,912.1ZM957.5,879.5C930.2,872.6 933.1,873.8 911.0,860.7C892.7,849.8 892.3,849.5 875.8,833.2L859.1,816.7L836.6,773.6C824.3,749.9 813.9,729.3 813.5,727.9C812.6,724.2 814.2,722.9 830.1,714.9C844.0,708.0 844.0,708.0 865.6,704.0C887.2,700.0 887.2,700.0 913.5,700.0C939.8,700.0 939.8,700.0 964.0,706.0C987.4,711.8 988.7,712.3 1003.8,720.0C1019.5,727.9 1019.5,727.9 1043.6,750.0L1067.8,772.1L1083.9,800.3C1100.0,828.5 1100.0,828.5 1103.7,845.3C1107.4,862.0 1107.4,862.0 1105.4,864.1C1104.0,865.5 1093.4,868.8 1069.4,875.2L1035.5,884.3L1007.5,884.7L979.5,885.0L957.5,879.5ZM1304.8,881.0C1282.4,876.8 1284.8,877.6 1237.7,858.1C1215.8,849.1 1215.8,849.1 1191.7,831.0C1167.5,813.0 1167.5,813.0 1141.3,782.8C1115.1,752.6 1115.1,752.6 1100.6,725.5C1092.7,710.6 1085.9,697.3 1085.5,695.9C1084.6,692.2 1086.2,690.9 1102.1,682.9C1115.6,676.2 1116.9,675.8 1148.1,668.0L1180.2,660.0L1228.0,660.0C1275.7,660.0 1275.7,660.0 1293.6,664.0C1311.2,668.0 1312.1,668.3 1347.5,684.0C1383.5,700.0 1383.5,700.0 1399.0,711.5C1413.5,722.3 1416.2,724.8 1441.2,751.7L1467.9,780.5L1486.5,813.7C1506.7,850.0 1507.0,850.8 1504.3,853.2C1502.5,854.8 1467.2,868.9 1456.5,872.3C1441.9,876.9 1408.4,881.0 1368.5,883.0C1322.0,885.4 1329.9,885.6 1304.8,881.0ZM2620.3,883.8C2616.6,882.0 2615.2,877.4 2607.0,840.3C2599.0,804.6 2599.0,804.6 2599.0,780.4C2599.0,756.3 2599.0,756.3 2604.4,734.4C2611.2,707.1 2609.8,710.6 2624.8,684.5C2637.5,662.5 2637.5,662.5 2658.0,641.7L2678.5,620.8L2719.3,600.4C2758.8,580.6 2760.2,580.0 2766.1,580.0C2776.4,580.0 2775.4,578.4 2785.2,612.0L2791.5,633.5L2791.5,680.5L2791.5,727.5L2785.7,746.0C2780.5,762.6 2778.9,766.3 2769.9,782.6C2759.8,800.8 2759.8,800.8 2737.2,823.2L2714.5,845.6L2673.0,865.3C2629.4,886.0 2626.8,886.9 2620.3,883.8ZM1614.0,809.9C1599.5,805.0 1599.5,805.0 1571.5,784.5C1556.1,773.2 1541.9,762.3 1539.9,760.2C1537.9,758.2 1527.1,742.3 1515.9,725.0C1495.8,693.9 1495.5,693.4 1492.2,682.0C1482.8,649.5 1483.0,650.8 1483.0,620.1C1483.0,592.4 1483.0,592.4 1487.0,572.5C1490.9,553.0 1491.2,552.2 1502.1,526.6C1515.2,495.7 1515.2,495.6 1525.4,496.2C1532.5,496.5 1532.5,496.5 1562.0,514.9C1578.2,525.0 1592.8,534.5 1594.4,535.9C1597.7,538.9 1653.0,612.2 1655.3,616.6C1656.1,618.2 1659.2,628.0 1662.1,638.5L1667.5,657.5L1667.5,692.0L1667.5,726.5L1652.6,769.0C1644.5,792.4 1637.1,812.3 1636.2,813.2C1633.9,815.9 1629.9,815.3 1614.0,809.9ZM2072.7,765.8C2071.8,765.1 2057.6,750.1 2041.1,732.5L2011.0,700.5L1998.9,678.3C1986.8,656.2 1986.8,656.2 1980.9,632.3L1974.9,608.5L1975.2,583.0L1975.6,557.5L1984.7,528.9C1989.7,513.2 1994.5,498.9 1995.5,497.0C1997.1,493.8 2046.3,430.9 2051.9,424.7C2055.5,420.7 2058.1,421.4 2072.3,429.7C2084.1,436.5 2084.1,436.5 2104.0,458.5C2124.0,480.5 2124.0,480.5 2140.0,508.5L2156.0,536.5L2162.0,562.5L2168.0,588.5L2162.4,624.0C2159.4,643.5 2156.4,661.1 2155.8,663.0C2155.2,664.9 2146.9,680.5 2137.2,697.7L2119.7,728.9L2100.5,747.9C2083.0,765.3 2081.0,767.0 2077.8,767.0C2075.9,767.0 2073.6,766.4 2072.7,765.8ZM2869.6,711.4C2867.5,709.3 2867.1,712.1 2875.5,670.0L2882.9,632.5L2892.9,612.5C2902.8,592.5 2902.8,592.5 2921.7,574.0L2940.5,555.4L2976.1,539.7L3011.7,524.0L3051.1,525.9C3092.4,527.9 3093.6,528.1 3094.5,531.0C3095.0,532.6 3082.8,593.4 3080.1,602.8C3079.5,604.6 3073.2,617.2 3065.9,630.8C3052.7,655.5 3052.7,655.5 3038.2,670.2C3023.7,684.8 3023.7,684.8 3005.6,694.9C2987.5,704.9 2987.5,704.9 2967.7,709.0C2947.8,713.0 2947.8,713.0 2909.5,713.0C2876.0,713.0 2870.9,712.8 2869.6,711.4ZM2349.3,655.2C2343.9,654.4 2341.8,650.2 2327.4,611.8C2323.0,600.2 2323.0,600.2 2321.0,574.5L2319.0,548.9L2323.0,530.7C2327.0,512.6 2327.0,512.6 2337.1,494.4C2347.1,476.3 2347.1,476.3 2365.8,457.8C2384.5,439.3 2384.5,439.3 2401.0,430.2C2420.0,419.8 2423.7,418.6 2427.2,422.1C2428.7,423.6 2433.7,435.7 2440.8,454.7L2452.0,484.9L2450.0,520.2L2448.1,555.5L2437.6,576.5L2427.2,597.5L2406.8,617.6C2386.5,637.7 2386.5,637.7 2371.0,646.2C2355.0,655.0 2353.0,655.8 2349.3,655.2ZM1410.0,651.5C1407.0,650.8 1389.9,646.3 1372.0,641.6C1339.5,633.0 1339.5,633.0 1317.5,621.0C1295.6,609.1 1295.4,608.9 1278.0,593.5C1268.4,584.9 1259.8,577.0 1258.9,575.7C1255.6,571.3 1220.8,511.6 1219.4,508.1C1218.7,506.1 1215.6,492.9 1212.5,478.6L1207.0,452.7L1207.0,416.4C1207.0,380.9 1207.1,379.9 1209.1,377.9C1211.1,375.9 1212.0,375.9 1232.8,376.2C1254.5,376.6 1254.5,376.6 1281.5,384.4C1308.1,392.1 1308.8,392.4 1332.0,404.1C1355.5,415.9 1355.5,415.9 1377.5,436.0C1389.6,447.0 1400.7,457.5 1402.1,459.1C1403.6,460.8 1413.6,480.7 1424.4,503.3L1444.0,544.5L1445.4,585.5C1446.3,608.0 1447.2,631.5 1447.5,637.7C1448.4,653.3 1448.6,653.0 1429.8,652.9C1421.5,652.9 1413.2,652.3 1410.0,651.5ZM1882.1,602.8C1879.0,600.5 1828.7,547.2 1824.4,541.5C1823.2,539.9 1816.2,523.2 1808.8,504.5L1795.5,470.5L1795.2,441.5C1794.9,412.5 1794.9,412.5 1798.9,396.6C1802.9,380.7 1802.9,380.7 1825.1,343.6C1849.0,303.7 1850.1,302.0 1853.7,302.0C1856.3,302.0 1875.6,309.9 1879.2,312.4C1880.4,313.3 1890.0,323.5 1900.7,335.2C1920.0,356.5 1920.0,356.5 1932.0,378.5C1943.9,400.5 1943.9,400.5 1950.0,424.9C1956.0,449.2 1956.0,449.2 1956.0,466.5C1956.0,483.8 1956.0,483.8 1950.0,507.9C1944.0,532.1 1944.0,532.1 1933.6,552.8C1923.4,573.0 1922.8,573.8 1911.2,587.1C1904.6,594.6 1898.0,601.7 1896.5,602.9C1892.7,605.8 1886.3,605.7 1882.1,602.8ZM1111.6,574.9C1079.7,573.0 1079.7,573.0 1061.6,567.0C1043.5,561.0 1043.5,561.0 1011.0,541.9C993.1,531.4 977.5,522.0 976.3,521.1C975.0,520.2 965.2,509.8 954.5,498.0C935.0,476.5 935.0,476.5 922.9,454.3L910.8,432.1L900.9,392.5C892.1,357.5 891.0,351.9 891.0,344.2C891.0,327.3 891.0,327.3 946.0,330.0L987.5,332.1L1023.0,347.7L1058.5,363.4L1082.0,386.9L1105.5,410.5L1124.1,442.5C1134.3,460.1 1143.2,475.9 1143.8,477.5C1144.4,479.1 1149.2,497.7 1154.5,518.8C1165.0,561.3 1166.3,570.7 1162.0,575.0C1159.5,577.5 1155.9,577.5 1111.6,574.9ZM2827.0,561.0C2826.4,559.8 2822.5,543.0 2818.4,523.7C2811.0,488.6 2811.0,488.6 2811.0,468.4C2811.0,448.1 2811.0,448.1 2818.9,416.4L2826.8,384.8L2838.6,365.2C2850.3,345.5 2850.3,345.5 2868.4,327.2L2886.5,308.8L2931.3,286.4C2976.0,264.0 2976.0,264.0 2984.3,264.0C2996.5,264.0 2995.5,262.4 3002.5,294.8L3008.1,321.1L3007.7,356.8L3007.4,392.5L2999.7,420.5C2992.0,448.4 2992.0,448.4 2982.3,464.0C2973.1,478.9 2971.9,480.3 2952.2,500.2L2931.7,520.9L2903.6,536.9C2875.5,553.0 2875.5,553.0 2855.5,557.6C2829.4,563.7 2828.5,563.8 2827.0,561.0ZM2545.1,555.3C2542.8,553.4 2542.6,552.0 2538.8,508.9L2534.9,464.5L2538.5,442.5C2542.9,416.1 2542.1,418.7 2553.2,392.0C2563.4,367.4 2562.0,369.9 2575.9,351.2C2586.3,337.2 2587.0,336.5 2607.7,319.5C2619.4,309.9 2630.7,301.2 2632.8,300.1C2640.5,296.1 2725.1,265.0 2728.0,265.0C2732.4,265.0 2737.6,267.5 2739.1,270.2C2739.8,271.4 2742.0,289.6 2744.1,310.4L2748.0,348.4L2741.9,384.4C2735.9,420.5 2735.9,420.5 2728.0,438.5C2720.0,456.5 2720.0,456.5 2701.8,478.8C2683.5,501.1 2683.5,501.1 2665.5,513.7C2642.0,530.2 2646.4,527.9 2607.5,543.2C2573.5,556.5 2573.5,556.5 2560.5,556.8C2548.8,557.1 2547.1,556.9 2545.1,555.3ZM2214.0,509.2C2203.8,496.7 2181.0,451.4 2175.4,432.5C2171.5,419.5 2171.5,419.5 2171.2,384.2L2170.9,348.8L2186.0,314.7C2194.4,295.9 2201.9,279.2 2202.9,277.7C2205.4,273.8 2255.8,227.1 2259.6,225.3C2267.4,221.5 2274.1,229.5 2294.0,266.5C2307.9,292.5 2307.9,292.5 2314.0,316.9C2320.0,341.2 2320.0,341.2 2320.0,361.0C2320.0,380.3 2319.9,381.0 2316.0,398.3C2312.1,415.8 2312.0,416.2 2301.6,436.7C2291.1,457.5 2291.1,457.5 2266.0,484.5C2242.7,509.6 2240.5,511.7 2234.3,514.7C2223.4,519.8 2222.3,519.5 2214.0,509.2ZM1688.7,504.0C1671.8,497.1 1671.8,497.1 1647.7,479.0L1623.5,461.0L1599.2,430.7L1575.0,400.5L1567.0,380.4L1559.0,360.3L1555.0,314.4L1551.0,268.5L1555.0,246.7C1558.7,226.1 1559.3,224.0 1565.9,208.2C1590.1,150.1 1590.2,150.0 1594.0,150.0C1595.2,150.0 1607.7,155.8 1621.8,162.9L1647.5,175.9L1677.0,203.5C1693.2,218.7 1707.9,232.6 1709.6,234.5C1711.4,236.5 1720.1,253.6 1730.3,275.2L1748.0,312.5L1750.0,360.0C1751.1,386.1 1751.7,408.6 1751.4,410.0C1749.7,416.8 1732.7,473.7 1731.5,476.6C1729.5,481.4 1715.1,507.1 1713.2,509.2C1710.7,512.1 1706.4,511.2 1688.7,504.0ZM2425.9,350.5C2423.4,349.7 2420.6,348.2 2419.6,347.1C2417.4,344.7 2392.4,273.7 2391.0,266.0C2390.5,263.0 2389.3,253.3 2388.5,244.5C2386.9,228.4 2386.9,228.4 2390.9,204.5L2394.9,180.5L2406.9,156.5L2418.8,132.5L2441.7,109.9L2464.5,87.3L2491.1,72.1C2512.9,59.7 2518.4,57.0 2521.6,57.0C2527.6,57.0 2537.0,59.6 2539.2,61.7C2540.8,63.3 2549.6,86.9 2561.3,121.1C2563.7,128.0 2564.1,131.4 2566.0,164.6L2568.0,200.6L2564.0,218.5C2560.0,236.5 2560.0,236.5 2547.9,258.6C2535.8,280.8 2535.8,280.8 2518.7,297.6C2501.5,314.5 2501.5,314.5 2470.0,332.9C2436.0,352.7 2434.6,353.3 2425.9,350.5ZM2040.3,341.7C2039.1,341.0 2022.2,327.0 2002.6,310.6L1967.1,280.7L1946.1,240.6C1934.6,218.5 1924.6,199.2 1924.1,197.7C1922.3,193.1 1918.8,106.9 1920.1,101.2C1926.6,72.0 1930.6,61.4 1945.7,33.0C1953.7,17.9 1960.8,4.7 1961.4,3.8C1963.3,0.7 1967.0,0.0 1982.4,0.0C2003.8,-0.0 2002.2,-0.9 2034.2,30.8L2059.9,56.3L2077.9,90.4C2095.9,124.5 2095.9,124.5 2100.0,140.9L2104.0,157.3L2102.0,196.7C2099.9,236.0 2099.9,236.0 2096.4,248.3C2088.4,275.8 2088.3,276.0 2070.0,306.6C2049.3,341.1 2046.1,344.9 2040.3,341.7ZM1389.2,302.0C1368.0,293.1 1367.7,293.0 1351.4,280.8C1335.0,268.5 1335.0,268.5 1314.1,242.0C1290.3,211.7 1291.0,212.8 1284.1,191.8C1279.0,176.2 1279.0,176.2 1277.0,149.0C1275.9,134.1 1275.3,120.6 1275.6,119.2C1278.0,108.9 1297.5,42.1 1298.6,40.3C1300.8,36.8 1302.9,37.3 1327.1,46.6C1352.8,56.4 1350.1,55.0 1369.0,69.1C1383.6,79.9 1383.6,79.9 1406.0,111.7C1418.3,129.2 1429.1,144.7 1430.1,146.1C1431.1,147.5 1433.6,154.0 1435.6,160.6C1439.4,172.5 1439.4,172.5 1439.7,210.2L1440.1,247.9L1429.0,277.7C1422.9,294.1 1417.1,308.3 1416.3,309.2C1413.8,312.0 1411.8,311.5 1389.2,302.0Z"/></svg>